<svg xmlns="http://www.w3.org/2000/svg" viewBox="0 0 568 270"><path fill="#D3DCE6" d="M192.46 198.076h-9.534a.99.99 0 0 1-.99-.99V7.322a.99.99 0 1 1 1.98 0v188.77h7.554V3.844a.99.99 0 0 1 1.982 0v193.242a.99.99 0 0 1-.99.99zm192.617 0h-9.535a.99.99 0 0 1-.99-.99V.99a.99.99 0 1 1 1.98 0v195.105h7.554V4.48a.99.99 0 0 1 1.982 0v192.605a.99.99 0 0 1-.99.99z"/><path fill="#F7F8FC" d="M361.87 194.673h-52.01l-3.816-43.732v-43.73h52.965v43.73"/><path fill="#D3DCE6" d="M361.87 195.664h-52.01a.99.99 0 0 1-.986-.905l-3.817-43.74-.004-43.82c0-.55.443-.99.99-.99h52.966c.54 0 .99.44.99.99v43.73l2.86 43.66c.01.27-.08.54-.27.74-.19.2-.45.31-.73.31zm-51.1-1.982h50.044l-2.794-42.677-.002-42.806h-50.983v42.74l3.734 42.74z"/><path fill="#D3DCE6" d="M359.01 151.93h-52.966c-.548 0-.99-.442-.99-.99s.442-.99.99-.99h52.965c.54 0 .99.442.99.99s-.45.99-.99.99zm-26.196-36.858a2.145 2.145 0 0 1-.005-4.288 2.145 2.145 0 1 1-.01 4.288zm0-2.306a.163.163 0 0 0-.163.162c0 .178.33.18.33 0a.16.16 0 0 0-.16-.162zm20.224 52.077h-39.492a.99.99 0 0 1-.99-.99c0-.55.442-.992.99-.992h39.492a.996.996 0 0 1 0 1.99zm0 6.562h-39.492a.99.99 0 1 1 0-1.982h39.492a.99.99 0 0 1 0 1.982zm0 6.56h-39.492a.988.988 0 0 1-.99-.99c0-.55.442-.99.99-.99h39.492c.548 0 .99.442.99.99 0 .55-.443.99-.99.99zm0 6.565h-39.492a.99.99 0 0 1 0-1.982h39.492a.99.99 0 1 1 0 1.98z"/><path fill="#D3DCE6" d="M319.752 189.31a.99.99 0 0 1-.988-.925l-1.908-28.995a.99.99 0 1 1 1.978-.13l1.908 28.995a.99.99 0 0 1-.924 1.054h-.066zm7.534 0a.99.99 0 0 1-.988-.925l-1.91-28.995a.992.992 0 0 1 .925-1.054 1 1 0 0 1 1.054.924l1.91 28.995a.992.992 0 0 1-.925 1.054h-.066zm7.534 0a.99.99 0 0 1-.987-.925l-1.908-28.995a.99.99 0 0 1 .924-1.054c.53-.03 1.01.377 1.05.924l1.91 28.995a.998.998 0 0 1-.93 1.054h-.07zm7.536 0a.99.99 0 0 1-.988-.925l-1.908-28.995a.99.99 0 0 1 .924-1.054 1 1 0 0 1 1.054.924l1.908 28.995a.99.99 0 0 1-.924 1.054h-.066zm7.534 0a.99.99 0 0 1-.987-.925l-1.908-28.995a.99.99 0 0 1 .924-1.054.997.997 0 0 1 1.05.924l1.91 28.995a.998.998 0 0 1-.93 1.054h-.07zm-21.732-32.967h-15.566a.99.99 0 0 1-.99-.99c0-.55.442-.992.99-.992h15.566a.996.996 0 0 1 0 1.99zm21.065 0h-8.775a.99.99 0 0 1-.99-.99c0-.55.442-.992.99-.992h8.775c.548 0 .99.45.99 1s-.442.99-.99.99zm-39.137 39.32h-4.042a.988.988 0 0 1-.99-.99V150.94c0-.548.442-.99.99-.99s.99.442.99.99v42.742h3.052a.99.99 0 0 1 .99.99c0 .55-.442.992-.99.992zm21.574-56.08c-4.71 0-8.54-3.83-8.54-8.54 0-4.71 3.83-8.54 8.54-8.54 4.71 0 8.542 3.83 8.542 8.54 0 4.708-3.83 8.54-8.54 8.54zm0-15.1a6.567 6.567 0 0 0-6.558 6.56c0 3.615 2.943 6.558 6.56 6.558 3.616 0 6.558-2.94 6.558-6.55s-2.943-6.56-6.56-6.56z"/><path fill="#D3DCE6" d="M339.21 132.033a.99.99 0 0 1-.99-.99V120.69l-4.695 3.692a.99.99 0 1 1-1.226-1.555l6.29-4.958a.984.984 0 0 1 1.6.77v12.39c0 .54-.44.99-.99.99zm-15.072 0a.99.99 0 0 1-.99-.99v-12.395a.988.988 0 1 1 1.602-.778l6.298 4.957a.99.99 0 1 1-1.226 1.556l-4.695-3.694v10.35c.002.54-.44.99-.99.99z"/><circle cx="336.058" cy="135.431" r="4.39" fill="#FFF"/><path fill="#D3DCE6" d="M336.058 140.81a5.386 5.386 0 0 1-5.38-5.38c0-2.966 2.413-5.38 5.38-5.38s5.38 2.414 5.38 5.38a5.386 5.386 0 0 1-5.38 5.38zm0-8.777c-1.875 0-3.4 1.524-3.4 3.398s1.525 3.4 3.4 3.4 3.4-1.52 3.4-3.4-1.525-3.39-3.4-3.39z"/><circle cx="327.287" cy="135.431" r="4.39" fill="#FFF"/><path fill="#D3DCE6" d="M327.287 140.81a5.386 5.386 0 0 1-5.38-5.38 5.386 5.386 0 0 1 5.38-5.38 5.387 5.387 0 0 1 5.38 5.38 5.386 5.386 0 0 1-5.38 5.38zm0-8.777c-1.875 0-3.4 1.524-3.4 3.398s1.525 3.4 3.4 3.4c1.874 0 3.398-1.52 3.398-3.4s-1.524-3.39-3.398-3.39z"/><circle cx="331.661" cy="132.313" r="2.424" fill="#FFF"/><path fill="#D3DCE6" d="M331.66 135.728a3.418 3.418 0 0 1-3.414-3.414c0-1.883 1.532-3.415 3.415-3.415s3.42 1.53 3.42 3.41-1.53 3.41-3.41 3.41zm0-4.848a1.434 1.434 0 0 0 0 2.866 1.434 1.434 0 1 0 .01-2.866z"/><path fill="#FFF" d="M334.28 132.313l12.336-4.09"/><path fill="#D3DCE6" d="M334.28 133.305a.992.992 0 0 1-.312-1.932l12.337-4.092a.992.992 0 0 1 1.252.63c.172.52-.11 1.08-.63 1.26l-12.336 4.09c-.1.04-.2.05-.31.05z"/><path fill="#FFF" d="M346.616 136.405l-12.336-4.092"/><path fill="#D3DCE6" d="M346.617 137.396a.997.997 0 0 1-.312-.05l-12.337-4.092a.993.993 0 0 1-.63-1.253.99.99 0 0 1 1.253-.62l12.34 4.09a1 1 0 0 1 .63 1.26c-.14.42-.52.68-.94.68z"/><path fill="#D3DCE6" d="M346.617 133.304h-12.12a.99.99 0 0 1 0-1.982h12.12a.992.992 0 0 1 0 1.982z"/><path fill="#FFF" d="M329.065 132.313l-12.336-4.09"/><path fill="#D3DCE6" d="M329.065 133.305a.997.997 0 0 1-.312-.05l-12.336-4.093a.993.993 0 0 1-.63-1.253.995.995 0 0 1 1.253-.63l12.336 4.09a.99.99 0 0 1-.31 1.93z"/><path fill="#FFF" d="M316.73 136.405l12.335-4.092"/><path fill="#D3DCE6" d="M316.73 137.396a.99.99 0 0 1-.312-1.932l12.335-4.092a.99.99 0 1 1 .622 1.88l-12.335 4.093a.985.985 0 0 1-.31.05z"/><path fill="#FFF" d="M316.73 132.313h12.118"/><path fill="#D3DCE6" d="M328.848 133.304h-12.12a.99.99 0 0 1 0-1.982h12.12a.99.99 0 0 1 0 1.982z"/><path fill="#FFF" d="M324.245 138.59s-5.613 2.7-5.017 11.995"/><path fill="#D3DCE6" d="M319.227 151.577a.99.99 0 0 1-.988-.927c-.64-9.85 5.32-12.83 5.57-12.95a.988.988 0 0 1 1.32.462.996.996 0 0 1-.46 1.32c-.23.112-5 2.61-4.46 11.04a.995.995 0 0 1-.93 1.053l-.07.002z"/><path fill="#FFF" d="M339.454 138.59s5.613 2.7 5.017 11.995"/><path fill="#D3DCE6" d="M344.473 151.577c-.02 0-.043 0-.064-.002a.988.988 0 0 1-.93-1.052c.54-8.45-4.26-10.94-4.47-11.04a1.005 1.005 0 0 1-.46-1.325.982.982 0 0 1 1.31-.46c.25.122 6.21 3.1 5.57 12.95a.997.997 0 0 1-.99.93z"/><path fill="#FFF" d="M336.063 143.753a1.95 1.95 0 0 0-1.95 1.95v5.238h3.9v-5.23a1.956 1.956 0 0 0-1.95-1.95z"/><path fill="#D3DCE6" d="M338.01 151.93h-3.897a.988.988 0 0 1-.99-.99v-5.24c0-1.62 1.318-2.938 2.94-2.938s2.94 1.318 2.94 2.94v5.238a.99.99 0 0 1-.992.99zm-2.906-1.98h1.916v-4.25a.96.96 0 0 0-1.916 0v4.25z"/><path fill="#FFF" d="M327.287 143.753a1.95 1.95 0 0 0-1.95 1.95v5.238h3.9v-5.23c0-1.07-.874-1.95-1.95-1.95z"/><path fill="#D3DCE6" d="M329.236 151.93h-3.897c-.55 0-1-.442-1-.99v-5.24c0-1.62 1.32-2.938 2.94-2.938s2.94 1.318 2.94 2.94v5.238c0 .548-.45.99-.99.99zm-2.907-1.98h1.91v-4.25a.96.96 0 0 0-1.92 0v4.25zm18.12 1.944a1 1 0 0 1-.9-.566.982.982 0 0 1 .47-1.32c2.65-1.26 3.4-2.165 3.57-2.703.15-.495-.12-1-.58-1.778-.72-1.23-1.93-3.292 1.13-5.372 3.16-2.154 3.62-4.592 3.61-5.853-.01-1.205-.46-2.154-.88-2.435a.99.99 0 0 1-.28-1.374c.3-.455.91-.58 1.37-.275 1.06.707 1.75 2.306 1.76 4.074.01 2.816-1.62 5.55-4.48 7.5-1.53 1.04-1.28 1.468-.54 2.736.52.895 1.17 2.01.75 3.36-.43 1.374-1.89 2.616-4.62 3.91a.988.988 0 0 1-.42.096z"/><path fill="#F7F8FC" d="M276.92 242.266h-30.367a.99.99 0 0 1 0-1.982h30.367a.99.99 0 1 1 0 1.982zm0 11.112h-30.367a.99.99 0 0 1 0-1.982h30.367a.99.99 0 1 1 0 1.982z"/><path fill="#F7F8FC" d="M267.303 242.266a.99.99 0 0 1-.99-.99v-9.132a.99.99 0 1 1 1.98 0v9.13a.99.99 0 0 1-.99.992zm-10.976 11.112a.99.99 0 0 1-.99-.99v-11.113a.99.99 0 1 1 1.98 0v11.112a.99.99 0 0 1-.99.99zm10.976 11.202a.99.99 0 0 1-.99-.992v-11.202a.99.99 0 1 1 1.98 0v11.202a.99.99 0 0 1-.99.99zm290.767-56.97H9.932a.99.99 0 0 1-.99-.99.99.99 0 0 1 .99-.992H558.07a.99.99 0 0 1 .99.99c0 .55-.442.992-.99.992z"/><path fill="#E7E9F3" d="M564.926 269.505H3.076a.99.99 0 0 1 0-1.982h561.85a.99.99 0 1 1 0 1.982z"/><path fill="#F7F8FC" d="M130.612 40.937a.987.987 0 0 1-.7-.29.987.987 0 0 1 0-1.4l7.39-7.39a.99.99 0 1 1 1.4 1.4l-7.39 7.39a.988.988 0 0 1-.7.29zm-2.238 9.626a.987.987 0 0 1-.7-.29.987.987 0 0 1 0-1.4l17.016-17.015a.99.99 0 1 1 1.4 1.4l-17.016 17.015a.988.988 0 0 1-.7.29zm13.203 26.48a.982.982 0 0 1-.7-.29.987.987 0 0 1 0-1.4L151.84 64.39a.992.992 0 0 1 1.402 1.4l-10.965 10.964a.982.982 0 0 1-.7.29zm-10.965 21.922a.987.987 0 0 1-.7-.29.987.987 0 0 1 0-1.4l7.39-7.39a.99.99 0 1 1 1.4 1.4l-7.39 7.39a.988.988 0 0 1-.7.29zm-2.238 9.625a.982.982 0 0 1-.7-.29.987.987 0 0 1 0-1.4l17.016-17.015a.99.99 0 1 1 1.4 1.4L129.074 108.3a.98.98 0 0 1-.7.29zm13.203 26.483a.987.987 0 0 1-.7-.29.987.987 0 0 1 0-1.4l10.964-10.964a.996.996 0 0 1 1.41 0c.39.38.39 1.01 0 1.4l-10.96 10.96c-.19.19-.44.29-.7.29zm-40-58.03a.982.982 0 0 1-.7-.29.987.987 0 0 1 0-1.4L111.84 64.39a.992.992 0 0 1 1.402 1.4l-10.965 10.964a.982.982 0 0 1-.7.29zM90.612 98.965a.987.987 0 0 1-.7-.29.987.987 0 0 1 0-1.4l7.39-7.39a.99.99 0 1 1 1.4 1.4l-7.39 7.39a.988.988 0 0 1-.7.29zm-2.238 9.625a.982.982 0 0 1-.7-.29.987.987 0 0 1 0-1.4l17.016-17.015a.99.99 0 1 1 1.4 1.4L89.074 108.3a.98.98 0 0 1-.7.29zm13.203 26.483a.987.987 0 0 1-.7-.29.987.987 0 0 1 0-1.4l10.964-10.964a.996.996 0 0 1 1.41 0c.39.38.39 1.01 0 1.4l-10.96 10.96c-.19.19-.44.29-.7.29zm-40 0a.987.987 0 0 1-.7-.29.987.987 0 0 1 0-1.4l10.965-10.964a.984.984 0 0 1 1.4 0 .987.987 0 0 1 0 1.4l-10.965 10.96a1 1 0 0 1-.7.29z"/><path fill="#D3DCE6" d="M39.548 140.19H34.56a.99.99 0 0 1 0-1.982h3.997v-8.19a.99.99 0 0 1 1.982-.002v9.182c0 .548-.45.99-1 .99zm40 0h-35.69a.99.99 0 0 1-.99-.992v-16.512a.99.99 0 1 1 1.98 0v15.52h33.706V86.47h-7.638a.99.99 0 0 1 0-1.982h8.63c.546 0 .99.444.99.99V139.2a.99.99 0 0 1-.99.99zm0-58.03h-4.845a.99.99 0 0 1 0-1.982h3.853v-4.282a.99.99 0 0 1 1.982 0v5.272a.99.99 0 0 1-.99.99zm40 0h-35.69a.99.99 0 0 1-.99-.992v-9.743a.99.99 0 1 1 1.98 0v8.752h33.71V40.785a.99.99 0 1 1 1.98 0v40.383a.99.99 0 0 1-.99.99zm39.998 0h-35.69a.99.99 0 0 1-.99-.992V37.724a.99.99 0 1 1 1.98 0v42.453h33.71V24.595a.99.99 0 1 1 1.98 0V81.17a.99.99 0 0 1-.99.99z"/><path fill="#D3DCE6" d="M163.856 144.498H32.37a.99.99 0 1 1-.002-1.982h130.497V20.276a.99.99 0 0 1 1.982 0v123.23a.99.99 0 0 1-.99.992z"/><path fill="#D3DCE6" d="M119.547 140.19h-35.69a.99.99 0 0 1-.99-.992v-53.72a.99.99 0 0 1 .99-.99h35.69a.99.99 0 0 1 .99.99v53.72a.99.99 0 0 1-.99.99zm-34.7-1.982h33.71v-51.74h-33.71v51.74zm74.7 1.982h-35.69a.99.99 0 0 1-.99-.992v-53.72a.99.99 0 0 1 .99-.99h35.69a.99.99 0 0 1 .99.99v53.72a.99.99 0 0 1-.99.99zm-34.7-1.982h33.71v-51.74h-33.71v51.74z"/><g fill="#FFF"><path d="M489.362 76.86h-.982v-1.04c.333.343.657.687.982 1.04z"/><path d="M489.36 77.85h-.98a.99.99 0 0 1-.99-.99v-1.04a.99.99 0 1 1 1.7-.69c.34.35.67.7 1 1.06a.99.99 0 0 1-.73 1.66z"/></g><path fill="#F7F8FC" d="M495.14 94.658a.987.987 0 0 1-.7-.29.987.987 0 0 1 0-1.4l4.805-4.806a.99.99 0 1 1 1.4 1.4l-4.805 4.806a.988.988 0 0 1-.7.29zm-2.24 9.62a.99.99 0 0 1-.702-1.69l10.364-10.365a.99.99 0 1 1 1.4 1.4L493.6 103.988a.988.988 0 0 1-.7.29zm13.204 26.485a.987.987 0 0 1-.7-.29.987.987 0 0 1 0-1.4l10.965-10.964a.984.984 0 0 1 1.4 0c.38.38.38 1.01 0 1.4l-10.97 10.96c-.2.19-.45.29-.7.29zM452.9 46.256a.987.987 0 0 1-.7-.29.987.987 0 0 1 0-1.4l.685-.687a.984.984 0 0 1 1.4 0 .987.987 0 0 1 0 1.4l-.685.68a1 1 0 0 1-.7.29zm13.206 26.474a.982.982 0 0 1-.7-.29.987.987 0 0 1 0-1.4l9.048-9.047a.99.99 0 1 1 1.4 1.4l-9.048 9.048a.958.958 0 0 1-.7.29zm-10.968 21.925a.987.987 0 0 1-.7-.29.987.987 0 0 1 0-1.4l7.39-7.39a.99.99 0 0 1 1.4 1.402l-7.39 7.388a.985.985 0 0 1-.7.29zm-2.238 9.625a.99.99 0 0 1-.7-1.69l17.017-17.014a.99.99 0 1 1 1.4 1.4L453.6 103.99a.97.97 0 0 1-.7.29zm13.204 26.483a.987.987 0 0 1-.7-.29.987.987 0 0 1 0-1.4l10.964-10.964a.984.984 0 0 1 1.4 0 .987.987 0 0 1 0 1.4l-10.964 10.96a1 1 0 0 1-.7.29zM415.14 36.627a.99.99 0 0 1-.702-1.69l7.39-7.39a.99.99 0 1 1 1.4 1.4l-7.39 7.39a.985.985 0 0 1-.7.29zm-2.24 9.626a.987.987 0 0 1-.7-.29.987.987 0 0 1 0-1.4l17.016-17.016a.99.99 0 1 1 1.4 1.4L413.6 45.964a.985.985 0 0 1-.7.29zm13.204 26.48a.982.982 0 0 1-.7-.29.987.987 0 0 1 0-1.4L436.37 60.08a.99.99 0 1 1 1.4 1.4l-10.967 10.964a.988.988 0 0 1-.7.29zM415.14 94.656a.99.99 0 0 1-.702-1.69l7.39-7.39a.99.99 0 0 1 1.4 1.402l-7.39 7.388a.985.985 0 0 1-.7.29zm-2.24 9.625a.958.958 0 0 1-.7-.29.987.987 0 0 1 0-1.4l17.016-17.01a1.002 1.002 0 0 1 1.4 0 .987.987 0 0 1 0 1.4L413.6 103.99a.98.98 0 0 1-.7.29zm13.204 26.49a.958.958 0 0 1-.7-.29.987.987 0 0 1 0-1.4l10.965-10.96a.984.984 0 0 1 1.4 0c.38.39.38 1.01 0 1.4l-10.97 10.96c-.2.2-.45.29-.7.29z"/><path fill="#D3DCE6" d="M444.07 77.85h-35.69a.99.99 0 0 1-.99-.99V23.14a.99.99 0 1 1 1.982-.002v52.73h33.707V37.66c0-.547.44-.99.99-.99s.99.443.99.99v39.2c0 .547-.45.99-.99.99zm40 0h-35.69a.99.99 0 0 1-.99-.99V40.726a.99.99 0 0 1 .99-.99.99.99 0 0 1 .992.99v35.14h33.707v-4.52c0-.546.44-.99.99-.99s.99.444.99.99v5.51c0 .55-.45.993-.99.993zm7.2 0h-2.89a.99.99 0 0 1-.99-.99v-2.95a.99.99 0 1 1 1.98 0v1.958h1.9a.99.99 0 0 1 0 1.982zm32.8 58.03h-35.69a.99.99 0 0 1-.99-.99V81.167a.99.99 0 0 1 .99-.99h4.93a.99.99 0 1 1 0 1.98h-3.94v51.74h33.708V122.57a.99.99 0 0 1 1.982 0v12.318a.99.99 0 0 1-.99.99zm7.083 0h-2.775a.99.99 0 0 1-.99-.99v-4.996a.99.99 0 1 1 1.98 0v4.004h1.785a.99.99 0 0 1 0 1.982z"/><path fill="#D3DCE6" d="M533.442 140.19h-129.37a.99.99 0 0 1-.99-.992V18.83a.99.99 0 1 1 1.98 0v119.378h128.38a.99.99 0 1 1 0 1.98z"/><path fill="#D3DCE6" d="M444.07 135.88h-35.69a.99.99 0 0 1-.99-.99V81.167a.99.99 0 0 1 .99-.99h35.69a.99.99 0 0 1 .99.99v53.72a.99.99 0 0 1-.99.992zm-34.698-1.982h33.707v-51.74h-33.71v51.74zm74.698 1.982h-35.69a.99.99 0 0 1-.99-.99V81.167a.99.99 0 0 1 .99-.99h35.69a.99.99 0 0 1 .99.99v53.72a.99.99 0 0 1-.99.992zm-34.698-1.982h33.707v-51.74h-33.71v51.74z"/><g fill="#F7F8FC"><path d="M560.355 221.852H511.25a.99.99 0 1 1 0-1.982h49.105a.99.99 0 1 1 0 1.982zm0 11.112H511.25a.99.99 0 0 1-.99-.99c0-.55.442-.992.99-.992h49.105a.99.99 0 0 1 .99.99c0 .55-.442.992-.99.992zm0 11.202h-30.75a.99.99 0 0 1-.99-.99c0-.55.442-.992.99-.992h30.75a.99.99 0 0 1 .99.99c0 .55-.442.992-.99.992z"/><path d="M535.803 221.852a.99.99 0 0 1-.99-.99v-9.132c0-.548.442-.99.99-.99s.99.442.99.99v9.13c0 .55-.442.992-.99.992zm-14.78 11.112a.99.99 0 0 1-.99-.99V220.86a.99.99 0 1 1 1.98 0v11.113c0 .548-.442.99-.99.99zm29.56.046a.99.99 0 0 1-.99-.992v-11.202c0-.548.44-.99.99-.99s.99.442.99.99v11.202a.99.99 0 0 1-.99.99zm-14.78 11.2a.99.99 0 0 1-.99-.99v-11.202c0-.548.442-.99.99-.99s.99.442.99.99v11.2c0 .55-.442.992-.99.992z"/></g><g fill="#F7F8FC"><path d="M550.125 257.404h-32.42a.99.99 0 0 1-.99-.99.99.99 0 0 1 .99-.992h32.42a.99.99 0 0 1 .99.99c0 .55-.442.992-.99.992zm0 11.112h-19.18a.99.99 0 0 1 0-1.982h19.18a.99.99 0 1 1 0 1.982z"/><path d="M542.735 268.56a.99.99 0 0 1-.99-.99v-11.203c0-.548.442-.99.99-.99s.99.442.99.99v11.202c0 .54-.442.99-.99.99z"/></g><path fill="#D3DCE6" d="M559.98 207.61H8.023a.99.99 0 0 1-.99-.99.99.99 0 0 1 .99-.992H559.98a.99.99 0 0 1 .99.99.99.99 0 0 1-.99.992zm-2.308-9.534H10.342a.99.99 0 1 1-.002-1.982h547.332a.99.99 0 0 1 .99.99.99.99 0 0 1-.99.992z"/><path fill="#E3EAF2" d="M375.757 102.446h160.676v2.86H375.757z"/><path fill="#D3DCE6" d="M536.432 106.298H375.757a.99.99 0 0 1-.99-.99v-2.862a.99.99 0 0 1 .99-.99h160.675a.99.99 0 0 1 .99.99v2.86c0 .55-.442.992-.99.992zm-159.684-1.98H535.44v-.88H376.75v.88z"/><path fill="#E3EAF2" d="M375.757 142.285h160.676v2.86H375.757z"/><path fill="#D3DCE6" d="M536.432 146.137H375.757a.99.99 0 0 1-.99-.99v-2.862c0-.548.442-.99.99-.99h160.675c.548 0 .99.442.99.99v2.86c0 .55-.442.992-.99.992zm-159.684-1.982H535.44v-.88H376.75v.88z"/><path fill="#E3EAF2" d="M375.757 182.124h160.676v2.86H375.757z"/><path fill="#D3DCE6" d="M536.432 185.975H375.757a.99.99 0 0 1-.99-.99v-2.862c0-.548.442-.99.99-.99h160.675c.548 0 .99.442.99.99v2.86c0 .55-.442.992-.99.992zm-159.684-1.98H535.44v-.88H376.75v.88z"/><path fill="#E3EAF2" d="M375.757 221.962h160.676v2.86H375.757z"/><path fill="#D3DCE6" d="M536.432 225.814H375.757a.99.99 0 0 1-.99-.99v-2.862c0-.548.442-.99.99-.99h160.675c.548 0 .99.442.99.99v2.86c0 .55-.442.992-.99.992zm-159.684-1.98H535.44v-.88H376.75v.88z"/><path fill="#E3EAF2" d="M375.757 261.8h160.676v2.862H375.757z"/><path fill="#D3DCE6" d="M536.432 265.654H375.757a.99.99 0 0 1-.99-.99V261.8c0-.548.442-.99.99-.99h160.675c.548 0 .99.442.99.99v2.86a.99.99 0 0 1-.99.992zm-159.684-1.982H535.44v-.88H376.75v.88z"/><path fill="#E3EAF2" d="M380.523 98.98h3.19v169.534h-3.19z"/><path fill="#D3DCE6" d="M383.713 269.505h-3.19a.99.99 0 0 1-.99-.99V98.98a.99.99 0 0 1 .99-.99h3.19a.99.99 0 0 1 .99.99v169.533a.99.99 0 0 1-.99.992zm-2.2-1.982h1.21V99.97h-1.21v167.553z"/><path fill="#E3EAF2" d="M528.477 98.98h3.19v169.534h-3.19z"/><path fill="#D3DCE6" d="M531.666 269.505h-3.19a.99.99 0 0 1-.99-.99V98.98a.99.99 0 0 1 .99-.99h3.19a.99.99 0 0 1 .99.99v169.533a.99.99 0 0 1-.99.992zm-2.2-1.982h1.21V99.97h-1.21v167.553z"/><path fill="#E3EAF2" d="M454.5 98.98h3.19v169.534h-3.19z"/><path fill="#D3DCE6" d="M457.69 269.505h-3.19a.99.99 0 0 1-.992-.99V98.98a.99.99 0 0 1 .99-.99h3.19a.99.99 0 0 1 .992.99v169.533a.99.99 0 0 1-.99.992zm-2.2-1.982h1.21V99.97h-1.21v167.553z"/><path fill="#FFF" d="M388.692 115.166h27.123v27.12h-27.123z"/><path fill="#F7F8FC" d="M388.692 115.166h27.123v27.12h-27.123z"/><path fill="#D3DCE6" d="M415.814 143.276h-27.122a.99.99 0 0 1-.99-.99v-27.12a.99.99 0 0 1 .99-.99h27.122a.99.99 0 0 1 .99.99v27.12a.99.99 0 0 1-.99.99zm-26.13-1.982h25.14v-25.137h-25.14v25.137z"/><path fill="#E3EAF2" d="M394.623 121.324h9.457v4.103h-9.457z"/><path fill="#D3DCE6" d="M404.08 126.418h-9.457a.99.99 0 0 1-.99-.99v-4.104a.99.99 0 0 1 .99-.99h9.457a.99.99 0 0 1 .99.99v4.103a.99.99 0 0 1-.99.99zm-8.466-1.982h7.475v-2.12h-7.48v2.12z"/><path fill="#FFF" d="M388.692 155.005h27.123v27.12h-27.123z"/><path fill="#F7F8FC" d="M388.692 155.005h27.123v27.12h-27.123z"/><path fill="#D3DCE6" d="M415.814 183.114h-27.122a.99.99 0 0 1-.99-.99v-27.12a.99.99 0 0 1 .99-.99h27.122a.99.99 0 0 1 .99.99v27.12a.99.99 0 0 1-.99.99zm-26.13-1.982h25.14v-25.136h-25.14v25.136z"/><path fill="#E3EAF2" d="M394.623 161.163h9.457v4.103h-9.457z"/><path fill="#D3DCE6" d="M404.08 166.256h-9.457a.99.99 0 0 1-.99-.99v-4.104c0-.548.442-.99.99-.99h9.457c.548 0 .99.442.99.99v4.103c0 .548-.442.99-.99.99zm-8.466-1.98h7.475v-2.122h-7.48v2.12z"/><path fill="#FFF" d="M462.83 155.005h27.124v27.12H462.83z"/><path fill="#F7F8FC" d="M462.83 155.005h27.124v27.12H462.83z"/><path fill="#D3DCE6" d="M489.955 183.114h-27.123a.99.99 0 0 1-.99-.99v-27.12a.99.99 0 0 1 .99-.99h27.123a.99.99 0 0 1 .99.99v27.12a.99.99 0 0 1-.99.99zm-26.133-1.982h25.14v-25.136h-25.14v25.136z"/><path fill="#E3EAF2" d="M468.763 161.163h9.457v4.103h-9.457z"/><path fill="#D3DCE6" d="M478.22 166.256h-9.457a.99.99 0 0 1-.99-.99v-4.104c0-.548.442-.99.99-.99h9.457c.548 0 .99.442.99.99v4.103c0 .548-.442.99-.99.99zm-8.465-1.98h7.475v-2.122h-7.475v2.12z"/><path fill="#FFF" d="M495.24 155.005h27.124v27.12H495.24z"/><path fill="#F7F8FC" d="M495.24 155.005h27.124v27.12H495.24z"/><path fill="#D3DCE6" d="M522.365 183.114h-27.123a.99.99 0 0 1-.99-.99v-27.12a.99.99 0 0 1 .99-.99h27.123a.99.99 0 0 1 .99.99v27.12a.99.99 0 0 1-.99.99zm-26.133-1.982h25.14v-25.136h-25.14v25.136z"/><path fill="#E3EAF2" d="M501.173 161.163h9.457v4.103h-9.457z"/><path fill="#D3DCE6" d="M510.63 166.256h-9.457a.99.99 0 0 1-.99-.99v-4.104c0-.548.442-.99.99-.99h9.457c.548 0 .99.442.99.99v4.103c0 .548-.442.99-.99.99zm-8.466-1.98h7.475v-2.122h-7.48v2.12z"/><path fill="#FFF" d="M495.24 194.843h27.124v27.12H495.24z"/><path fill="#F7F8FC" d="M495.24 194.843h27.124v27.12H495.24z"/><path fill="#D3DCE6" d="M522.365 222.953h-27.123a.99.99 0 0 1-.99-.99v-27.12c0-.548.442-.99.99-.99h27.123c.548 0 .99.442.99.99v27.12a.99.99 0 0 1-.99.99zm-26.133-1.98h25.14v-25.138h-25.14v25.137z"/><path fill="#E3EAF2" d="M501.173 201.002h9.457v4.103h-9.457z"/><path fill="#D3DCE6" d="M510.63 206.096h-9.457a.99.99 0 0 1-.99-.99V201c0-.548.442-.99.99-.99h9.457c.548 0 .99.442.99.99v4.103a.99.99 0 0 1-.99.99zm-8.466-1.982h7.475v-2.12h-7.48v2.12z"/><path fill="#FFF" d="M495.24 234.682h27.124v27.12H495.24z"/><path fill="#F7F8FC" d="M495.24 234.682h27.124v27.12H495.24z"/><path fill="#D3DCE6" d="M522.365 262.792h-27.123a.99.99 0 0 1-.99-.99v-27.12c0-.548.442-.99.99-.99h27.123c.548 0 .99.442.99.99v27.12a.99.99 0 0 1-.99.99zm-26.133-1.98h25.14v-25.138h-25.14v25.137z"/><path fill="#E3EAF2" d="M501.173 240.84h9.457v4.103h-9.457z"/><path fill="#D3DCE6" d="M510.63 245.934h-9.457a.99.99 0 0 1-.99-.99v-4.104c0-.548.442-.99.99-.99h9.457c.548 0 .99.442.99.99v4.103c0 .548-.442.99-.99.99zm-8.466-1.982h7.475v-2.12h-7.48v2.12z"/><path fill="#FFF" d="M463.785 234.682h27.123v27.12h-27.123z"/><path fill="#F7F8FC" d="M463.785 234.682h27.123v27.12h-27.123z"/><path fill="#D3DCE6" d="M490.908 262.792h-27.123a.99.99 0 0 1-.99-.99v-27.12c0-.548.442-.99.99-.99h27.123c.548 0 .99.442.99.99v27.12a.99.99 0 0 1-.99.99zm-26.133-1.98h25.14v-25.138h-25.14v25.137z"/><path fill="#E3EAF2" d="M469.716 240.84h9.457v4.103h-9.457z"/><path fill="#D3DCE6" d="M479.174 245.934h-9.457a.99.99 0 0 1-.99-.99v-4.104c0-.548.442-.99.99-.99h9.457c.548 0 .99.442.99.99v4.103a.99.99 0 0 1-.99.99zm-8.466-1.982h7.475v-2.12h-7.475v2.12z"/><g fill="#F7F8FC"><path d="M75.385 221.747H26.28a.99.99 0 1 1-.002-1.982h49.106a.99.99 0 1 1 0 1.982zm0 11.113H26.28a.992.992 0 0 1-.002-1.982h49.106a.99.99 0 1 1 0 1.98zm0 11.2h-30.75a.99.99 0 0 1-.99-.99.99.99 0 0 1 .99-.992h30.75a.99.99 0 1 1 0 1.982z"/><path d="M50.832 221.852a.99.99 0 0 1-.99-.99v-9.132a.99.99 0 1 1 1.98 0v9.13a.99.99 0 0 1-.99.992zm-14.78 11.112a.99.99 0 0 1-.99-.99V220.86a.99.99 0 0 1 1.98 0v11.113c0 .548-.442.99-.99.99zm29.558.046a.99.99 0 0 1-.99-.992v-11.202a.99.99 0 1 1 1.982 0v11.202a.99.99 0 0 1-.99.99zm-14.778 11.2a.99.99 0 0 1-.99-.99v-11.202a.99.99 0 1 1 1.98 0v11.2a.99.99 0 0 1-.99.992z"/></g><g fill="#F7F8FC"><path d="M41.91 244.152H4.997a.99.99 0 0 1 0-1.982H41.91a.99.99 0 1 1 .002 1.982zm-4.495 11.11h-19.18a.99.99 0 1 1 0-1.98h19.18a.99.99 0 1 1 0 1.98z"/><path d="M30.026 255.31a.99.99 0 0 1-.99-.992v-11.202a.99.99 0 1 1 1.98 0v11.202a.99.99 0 0 1-.99.99z"/></g><path fill="#E3EAF2" d="M399.53 267.864h52.35a3.273 3.273 0 0 0 3.272-3.273v-47.33c0-1.8-1.466-3.27-3.273-3.27h-52.35c-1.81 0-3.28 1.47-3.28 3.28v47.33c0 1.81 1.46 3.28 3.27 3.28z"/><path fill="#D3DCE6" d="M451.88 268.855h-52.35a4.27 4.27 0 0 1-4.264-4.264v-47.33c0-2.35 1.913-4.26 4.265-4.26h52.35a4.28 4.28 0 0 1 4.27 4.27v47.33c0 2.36-1.91 4.27-4.26 4.27zm-52.35-53.884a2.29 2.29 0 0 0-2.282 2.29v47.34a2.29 2.29 0 0 0 2.283 2.29h52.35c1.26 0 2.29-1.02 2.29-2.28v-47.34c0-1.26-1.02-2.28-2.28-2.28h-52.35z"/><path fill="#FFF" d="M405.303 227.185L441 259.383h5.225v-3.35L409.18 222.15h-3.995"/><path fill="#D3DCE6" d="M446.225 260.373H441a.99.99 0 0 1-.665-.255L404.64 227.92a.986.986 0 0 1-.328-.71l-.12-5.036a1 1 0 0 1 .283-.715c.187-.2.442-.3.71-.3h3.993c.248 0 .486.09.67.26l37.046 33.88a.99.99 0 0 1 .322.73v3.35c0 .54-.443.99-.99.99zm-4.844-1.98h3.86v-1.923l-36.44-33.33h-2.6l.09 3.596 35.1 31.656z"/><path fill="#D3DCE6" d="M446.225 260.51h-41.04a.99.99 0 0 1-.992-.992V222.15a.99.99 0 0 1 .99-.99h41.042c.548 0 .99.442.99.99v37.368c0 .548-.442.99-.99.99zm-40.05-1.983h39.06V223.14h-39.06v35.387z"/><path fill="#E3EAF2" d="M258.246 267.864h52.35a3.273 3.273 0 0 0 3.272-3.273v-47.33c0-1.8-1.466-3.27-3.273-3.27h-52.35a3.277 3.277 0 0 0-3.272 3.28v47.33c0 1.81 1.465 3.28 3.273 3.28z"/><path fill="#D3DCE6" d="M310.595 268.855h-52.35a4.27 4.27 0 0 1-4.263-4.264v-47.33c0-2.35 1.913-4.26 4.264-4.26h52.35c2.35 0 4.264 1.92 4.264 4.27v47.33a4.27 4.27 0 0 1-4.265 4.27zm-52.35-53.884a2.29 2.29 0 0 0-2.28 2.29v47.34a2.29 2.29 0 0 0 2.28 2.29h52.35c1.26 0 2.283-1.02 2.283-2.28v-47.34c0-1.26-1.024-2.28-2.283-2.28h-52.35z"/><path fill="#F7F8FC" d="M264.02 227.185l35.695 32.198h5.225v-3.35l-37.046-33.883H263.9"/><path fill="#D3DCE6" d="M304.94 260.373h-5.225a.988.988 0 0 1-.664-.255l-35.69-32.198a.955.955 0 0 1-.32-.71l-.12-5.033c0-.267.1-.524.29-.716.19-.19.45-.3.71-.3h4c.25 0 .49.1.67.26l37.05 33.89c.21.19.32.46.32.73v3.35c0 .55-.44.99-.99.99zm-4.844-1.98h3.853v-1.923l-36.44-33.33h-2.6l.08 3.596 35.09 31.656z"/><path fill="#D3DCE6" d="M304.94 260.51H263.9a.99.99 0 0 1-.99-.992V222.15a.99.99 0 0 1 .99-.99h41.04c.548 0 .99.442.99.99v37.368c0 .548-.442.99-.99.99zm-40.05-1.983h39.06V223.14h-39.06v35.387z"/><path fill="#FFF" d="M341.382 189.113h52.35a3.273 3.273 0 0 0 3.272-3.273v-47.337a3.273 3.273 0 0 0-3.273-3.273h-52.34c-1.8 0-3.27 1.466-3.27 3.273v47.337a3.278 3.278 0 0 0 3.28 3.273z"/><path fill="#F7F8FC" d="M341.302 188.454h52.51a3.194 3.194 0 0 0 3.193-3.193v-46.84c0-1.76-1.43-3.19-3.193-3.19h-52.51a3.195 3.195 0 0 0-3.193 3.2v46.84c0 1.77 1.42 3.2 3.19 3.2z"/><path fill="#D3DCE6" d="M393.73 190.103h-52.347a4.27 4.27 0 0 1-4.265-4.263v-47.338a4.27 4.27 0 0 1 4.265-4.264h52.348c2.36 0 4.27 1.913 4.27 4.264v47.338c0 2.35-1.91 4.263-4.26 4.263zm-52.347-53.884a2.282 2.282 0 0 0-2.283 2.28v47.34c0 1.25 1.024 2.28 2.283 2.28h52.348c1.26 0 2.29-1.03 2.29-2.28V138.5a2.28 2.28 0 0 0-2.28-2.282h-52.35z"/><path fill="#E3EAF2" d="M347.037 143.398h41.04v37.368h-41.04z"/><path fill="#F7F8FC" d="M347.155 148.434l35.697 32.197h5.225v-3.34L351.03 143.4h-3.992"/><path fill="#D3DCE6" d="M388.076 181.622h-5.225c-.24 0-.48-.09-.66-.255l-35.7-32.197a.967.967 0 0 1-.32-.712l-.12-5.036a1.008 1.008 0 0 1 1-1.015h4c.25 0 .49.094.67.26l37.05 33.884c.21.19.32.46.32.74v3.35c0 .55-.44.99-.99.99zm-4.843-1.982h3.853v-1.923l-36.44-33.33h-2.595l.09 3.597 35.1 31.656z"/><path fill="#D3DCE6" d="M388.076 181.757h-41.04a.99.99 0 0 1-.99-.99v-37.37a.99.99 0 0 1 .99-.99h41.04a.99.99 0 0 1 .99.99v37.37a.99.99 0 0 1-.99.99zm-40.048-1.982h39.058V144.39h-39.058v35.385z"/><path fill="#FFF" d="M335.92 267.864h76.127a3.273 3.273 0 0 0 3.273-3.273v-72.36c0-1.8-1.466-3.27-3.273-3.27H335.92a3.277 3.277 0 0 0-3.273 3.28v72.36c0 1.81 1.465 3.28 3.273 3.28z"/><path fill="#F7F8FC" d="M336.99 267.864h74.295a4.035 4.035 0 0 0 4.036-4.036V192.99a4.03 4.03 0 0 0-4.03-4.036h-74.3a4.03 4.03 0 0 0-4.03 4.036v70.838c0 2.23 1.81 4.036 4.04 4.036z"/><path fill="#D3DCE6" d="M412.047 268.855H335.92a4.27 4.27 0 0 1-4.264-4.264v-72.36c0-2.35 1.913-4.26 4.265-4.26h76.13a4.28 4.28 0 0 1 4.27 4.27v72.36c0 2.35-1.91 4.27-4.26 4.27zm-76.126-78.91a2.29 2.29 0 0 0-2.28 2.283v72.363c0 1.26 1.03 2.29 2.29 2.29h76.13c1.26 0 2.29-1.02 2.29-2.28v-72.37c0-1.26-1.02-2.28-2.28-2.28h-76.13z"/><path fill="#E3EAF2" d="M341.575 197.124h64.818v62.393h-64.818z"/><path fill="#F7F8FC" d="M341.693 202.16l59.475 57.223h5.225v-3.35l-60.824-58.91h-4"/><path fill="#D3DCE6" d="M406.393 260.373h-5.226a.995.995 0 0 1-.687-.277l-59.474-57.223a.986.986 0 0 1-.304-.69l-.12-5.036a.997.997 0 0 1 .993-1.015h3.993c.257 0 .504.1.69.28l60.824 58.91a.988.988 0 0 1 .302.712v3.35a.99.99 0 0 1-.99.99zm-4.826-1.98h3.835v-1.94l-60.235-58.338h-2.578l.08 3.613 58.89 56.664z"/><path fill="#D3DCE6" d="M406.393 260.51h-64.82a.99.99 0 0 1-.99-.992v-62.394a.99.99 0 0 1 .99-.99h64.82c.548 0 .99.442.99.99v62.394c0 .548-.442.99-.99.99zm-63.827-1.983h62.837v-60.412h-62.837v60.412z"/><path fill="#E3EAF2" d="M50.698 263.454h96.948v4.29H50.698z"/><path fill="#D3DCE6" d="M147.646 268.736H50.698a.99.99 0 0 1-.99-.99v-4.292a.99.99 0 0 1 .99-.99h96.948a.99.99 0 0 1 .99.99v4.29c0 .55-.442.992-.99.992zm-95.957-1.98h94.96v-2.31H51.69v2.31z"/><path fill="#E3EAF2" d="M50.698 251.367h96.948v4.29H50.698z"/><path fill="#D3DCE6" d="M147.646 256.648H50.698a.99.99 0 0 1-.99-.99v-4.29a.99.99 0 0 1 .99-.992h96.948a.99.99 0 0 1 .99.99v4.29c0 .55-.442.992-.99.992zm-95.957-1.982h94.96v-2.31H51.69v2.31z"/><path fill="#E3EAF2" d="M96.046 255.658h6.252v7.797h-6.252z"/><path fill="#D3DCE6" d="M102.298 264.445h-6.252a.99.99 0 0 1-.99-.99v-7.798a.99.99 0 0 1 .99-.99h6.252a.99.99 0 0 1 .99.99v7.797a.99.99 0 0 1-.99.99zm-5.26-1.982h4.27v-5.815h-4.27v5.815z"/><path fill="#E3EAF2" d="M50.698 255.658h6.252v7.797h-6.252z"/><path fill="#D3DCE6" d="M56.95 264.445h-6.252a.99.99 0 0 1-.99-.99v-7.798a.99.99 0 0 1 .99-.99h6.252a.99.99 0 0 1 .99.99v7.797a.99.99 0 0 1-.99.99zm-5.26-1.982h4.27v-5.815h-4.27v5.815z"/><path fill="#E3EAF2" d="M141.394 255.658h6.252v7.797h-6.252z"/><path fill="#D3DCE6" d="M147.646 264.445h-6.252a.99.99 0 0 1-.99-.99v-7.798a.99.99 0 0 1 .99-.99h6.252a.99.99 0 0 1 .99.99v7.797c0 .548-.442.99-.99.99zm-5.26-1.982h4.27v-5.815h-4.27v5.815z"/><path fill="#E3EAF2" d="M46.7 247.075h96.948v4.29H46.7z"/><path fill="#D3DCE6" d="M143.648 252.358H46.7a.99.99 0 0 1-.99-.99v-4.292a.99.99 0 0 1 .99-.99h96.95a.99.99 0 0 1 .99.99v4.29a.99.99 0 0 1-.992.992zm-95.956-1.982h94.966v-2.31H47.692v2.31z"/><path fill="#E3EAF2" d="M46.7 234.988h96.948v4.29H46.7z"/><path fill="#D3DCE6" d="M143.648 240.27H46.7a.99.99 0 0 1-.99-.992v-4.29a.99.99 0 0 1 .99-.99h96.95a.99.99 0 0 1 .99.99v4.29a.99.99 0 0 1-.992.99zm-95.956-1.982h94.966v-2.31H47.692v2.31z"/><path fill="#E3EAF2" d="M92.048 239.28H98.3v7.796h-6.252z"/><path fill="#D3DCE6" d="M98.3 248.066h-6.252a.99.99 0 0 1-.99-.99v-7.798a.99.99 0 0 1 .99-.99H98.3a.99.99 0 0 1 .99.99v7.797a.99.99 0 0 1-.99.99zm-5.26-1.98h4.27v-5.816h-4.27v5.815z"/><path fill="#E3EAF2" d="M46.7 239.28h6.252v7.796H46.7z"/><path fill="#D3DCE6" d="M52.952 248.066H46.7a.99.99 0 0 1-.99-.99v-7.798a.99.99 0 0 1 .99-.99h6.252a.99.99 0 0 1 .99.99v7.797c0 .548-.442.99-.99.99zm-5.26-1.98h4.27v-5.816h-4.27v5.815z"/><path fill="#E3EAF2" d="M137.396 239.28h6.252v7.796h-6.252z"/><path fill="#D3DCE6" d="M143.648 248.066h-6.252a.99.99 0 0 1-.99-.99v-7.798a.99.99 0 0 1 .99-.99h6.252a.99.99 0 0 1 .99.99v7.797c0 .548-.442.99-.99.99zm-5.26-1.98h4.27v-5.816h-4.27v5.815z"/><path fill="#E3EAF2" d="M49.366 230.697h96.948v4.29H49.366z"/><path fill="#D3DCE6" d="M146.314 235.98H49.366a.99.99 0 0 1-.99-.992v-4.29a.99.99 0 0 1 .99-.992h96.948a.99.99 0 0 1 .99.99v4.292a.99.99 0 0 1-.99.99zm-95.957-1.983h94.966v-2.31H50.357v2.31z"/><path fill="#E3EAF2" d="M49.366 218.61h96.948v4.29H49.366z"/><path fill="#D3DCE6" d="M146.314 223.89H49.366a.99.99 0 0 1-.99-.99v-4.29a.99.99 0 0 1 .99-.992h96.948a.99.99 0 0 1 .99.99v4.292a.99.99 0 0 1-.99.99zm-95.957-1.98h94.966v-2.31H50.357v2.31z"/><path fill="#E3EAF2" d="M94.714 222.9h6.252v7.797h-6.252z"/><path fill="#D3DCE6" d="M100.965 231.688h-6.252a.99.99 0 0 1-.99-.99V222.9a.99.99 0 0 1 .99-.99h6.252a.99.99 0 0 1 .99.99v7.797c0 .548-.442.99-.99.99zm-5.26-1.982h4.27v-5.815h-4.27v5.82z"/><path fill="#E3EAF2" d="M49.366 222.9h6.252v7.797h-6.252z"/><path fill="#D3DCE6" d="M55.618 231.688h-6.252a.99.99 0 0 1-.99-.99V222.9a.99.99 0 0 1 .99-.99h6.252a.99.99 0 0 1 .99.99v7.797a.99.99 0 0 1-.99.99zm-5.26-1.982h4.27v-5.815h-4.27v5.82z"/><path fill="#E3EAF2" d="M140.062 222.9h6.252v7.797h-6.252z"/><path fill="#D3DCE6" d="M146.314 231.688h-6.252a.99.99 0 0 1-.99-.99V222.9a.99.99 0 0 1 .99-.99h6.252a.99.99 0 0 1 .99.99v7.797a.99.99 0 0 1-.99.99zm-5.262-1.982h4.27v-5.815h-4.27v5.82z"/><path fill="#E3EAF2" d="M46.7 214.318h96.948v4.29H46.7z"/><path fill="#D3DCE6" d="M143.648 219.6H46.7a.99.99 0 0 1-.99-.992v-4.29a.99.99 0 0 1 .99-.99h96.95a.99.99 0 0 1 .99.99v4.29a.99.99 0 0 1-.992.99zm-95.956-1.982h94.966v-2.31H47.692v2.31z"/><path fill="#E3EAF2" d="M46.7 202.23h96.948v4.29H46.7z"/><path fill="#D3DCE6" d="M143.648 207.512H46.7a.99.99 0 0 1-.99-.99v-4.292a.99.99 0 0 1 .99-.99h96.95a.99.99 0 0 1 .99.99v4.29a.99.99 0 0 1-.992.992zm-95.956-1.98h94.966v-2.31H47.692v2.31z"/><path fill="#E3EAF2" d="M92.048 206.52H98.3v7.798h-6.252z"/><path fill="#D3DCE6" d="M98.3 215.31h-6.252a.99.99 0 0 1-.99-.992v-7.797c0-.54.443-.99.99-.99H98.3c.547 0 .99.45.99.99v7.8c0 .55-.443.99-.99.99zm-5.26-1.983h4.27v-5.815h-4.27v5.815z"/><path fill="#E3EAF2" d="M46.7 206.52h6.252v7.798H46.7z"/><path fill="#D3DCE6" d="M52.952 215.31H46.7a.99.99 0 0 1-.99-.992v-7.797c0-.54.443-.99.99-.99h6.252c.547 0 .99.45.99.99v7.8c0 .55-.442.99-.99.99zm-5.26-1.983h4.27v-5.815h-4.27v5.815z"/><path fill="#E3EAF2" d="M137.396 206.52h6.252v7.798h-6.252z"/><path fill="#D3DCE6" d="M143.648 215.31h-6.252a.99.99 0 0 1-.99-.992v-7.797c0-.54.443-.99.99-.99h6.252c.547 0 .99.45.99.99v7.8c0 .55-.442.99-.99.99zm-5.26-1.983h4.27v-5.815h-4.27v5.815z"/><path fill="#E3EAF2" d="M105.847 173.587h91.045v6.1h-91.045z"/><path fill="#D3DCE6" d="M196.892 180.678h-91.046a.99.99 0 0 1-.99-.99v-6.102a.99.99 0 0 1 .99-.99h91.046a.99.99 0 0 1 .99.99v6.1a.99.99 0 0 1-.99.992zm-90.054-1.982h89.064v-4.12h-89.064v4.12z"/><path fill="#E3EAF2" d="M105.847 261.645h91.045v6.1h-91.045z"/><path fill="#D3DCE6" d="M196.892 268.736h-91.046a.99.99 0 0 1-.99-.99v-6.1a.99.99 0 0 1 .99-.992h91.046a.99.99 0 0 1 .99.99v6.1c0 .55-.442.992-.99.992zm-90.054-1.98h89.064v-4.12h-89.064v4.12z"/><path fill="#E3EAF2" d="M105.847 217.616h91.045v6.1h-91.045z"/><path fill="#D3DCE6" d="M196.892 224.706h-91.046a.99.99 0 0 1-.99-.99v-6.1a.99.99 0 0 1 .99-.992h91.046a.99.99 0 0 1 .99.99v6.1c0 .55-.442.992-.99.992zm-90.054-1.98h89.064v-4.12h-89.064v4.12z"/><path fill="#FFF" d="M105.847 173.587h12.202v94.16h-12.21zm19.71 0h12.203v94.16h-12.202zm19.71 0h12.203v94.16h-12.202zm19.713 0h12.2v94.16h-12.2zm19.71 0h12.202v94.16H184.69z"/><path fill="#F7F8FC" d="M105.792 173.587h12.257v94.16h-12.26zm19.738 0h12.257v94.16H125.53zm19.738 0h12.257v94.16h-12.257zm19.74 0h12.256v94.16h-12.257zm19.737 0h12.257v94.16h-12.257z"/><path fill="#D3DCE6" d="M118.05 268.736h-12.203a.99.99 0 0 1-.99-.99v-94.16a.99.99 0 0 1 .99-.99h12.202c.54 0 .99.442.99.99v94.16c0 .547-.45.99-.99.99zm-11.212-1.98h10.22v-92.18h-10.22v92.18zm30.922 1.98h-12.202a.99.99 0 0 1-.99-.99v-94.16a.99.99 0 0 1 .99-.99h12.202a.99.99 0 0 1 .99.99v94.16a.99.99 0 0 1-.99.99zm-11.21-1.98h10.22v-92.18h-10.22v92.18zm30.92 1.98h-12.2a.99.99 0 0 1-.992-.99v-94.16a.99.99 0 0 1 .99-.99h12.203c.55 0 1 .442 1 .99v94.16c0 .547-.44.99-.99.99zm-11.21-1.98h10.22v-92.18h-10.22v92.18zm30.92 1.98h-12.2a.99.99 0 0 1-.992-.99v-94.16a.99.99 0 0 1 .99-.99h12.203c.55 0 1 .442 1 .99v94.16c0 .547-.44.99-.99.99zm-11.21-1.98h10.22v-92.18h-10.22v92.18zm30.922 1.98H184.69a.99.99 0 0 1-.99-.99v-94.16a.99.99 0 0 1 .99-.99h12.202a.99.99 0 0 1 .99.99v94.16a.99.99 0 0 1-.99.99zm-11.21-1.98h10.22v-92.18h-10.22v92.18z"/><path fill="#5E5271" d="M565.513 270H2.486a1.487 1.487 0 0 1 0-2.972h563.027a1.487 1.487 0 0 1 0 2.972zM230.706 59.392a.495.495 0 0 1-.495-.495v-2.575a.5.5 0 0 1 1 0v2.575c0 .274-.22.495-.49.495zm-.144-7.172a.498.498 0 0 1-.492-.436c-1.172-9.768-9.49-17.134-19.345-17.134h-6.49a.495.495 0 1 1 .006-.99h6.49c10.36 0 19.1 7.74 20.33 18.007.03.27-.16.518-.43.55l-.06.003zm-51.472 8.7a.493.493 0 0 1-.495-.494V54.13c0-10.788 8.428-19.763 19.186-20.43a.496.496 0 1 1 .07.987c-10.24.636-18.25 9.177-18.25 19.444v6.3c0 .28-.22.5-.49.5zm0 5.794a.495.495 0 0 1-.495-.495v-2.58a.495.495 0 0 1 .99-.01v2.57c0 .27-.22.49-.495.49z"/><path fill="#FFF" d="M196.723 51.677l8.18-8.178 8.178 8.18-8.18 8.17z"/><path fill="#5E5271" d="M204.898 60.34a.49.49 0 0 1-.35-.145l-8.18-8.18a.494.494 0 0 1 0-.7l8.18-8.18a.496.496 0 0 1 .7 0l8.18 8.18a.492.492 0 0 1 0 .7l-8.18 8.18a.495.495 0 0 1-.35.145zm-7.48-8.674l7.48 7.478 7.48-7.478-7.48-7.478-7.48 7.478z"/><path fill="#5E5271" d="M203.378 54.174a.495.495 0 0 1-.495-.495v-4.04a.495.495 0 0 1 .99-.01v4.04c0 .27-.22.49-.495.49zm3.04 0a.495.495 0 0 1-.495-.495v-4.04a.495.495 0 0 1 .99-.01v4.04c0 .27-.22.49-.495.49z"/><path fill="#FFF" d="M186.743 87.58h-1.376c-.837 0-1.49-.722-1.4-1.56l.528-4.745h3.04L188.14 86a1.407 1.407 0 0 1-1.397 1.58z"/><path fill="#5E5271" d="M186.743 88.075h-1.376c-.54 0-1.058-.23-1.42-.632-.36-.4-.53-.94-.472-1.477l.527-4.747c.028-.26.24-.45.493-.45h3.04c.248 0 .46.18.49.43l.608 4.72c.067.54-.103 1.09-.465 1.49-.36.41-.88.64-1.425.64zm-1.804-6.305l-.48 4.305c-.03.26.05.512.22.706.17.2.41.31.68.31h1.37c.26 0 .51-.11.68-.31.17-.19.25-.46.22-.72l-.55-4.29h-2.16zm40.19 24.164h-2.93a.99.99 0 1 1-.01-1.982h2.94c.54 0 .99.444.99.99s-.45.992-.99.992zm-6.86 0h-2.94a.99.99 0 1 1 0-1.982h2.93a.99.99 0 1 1 0 1.982zm-6.86 0h-2.94a.99.99 0 1 1-.01-1.982h2.94c.54 0 .99.444.99.99s-.45.992-.99.992zm-6.86 0h-2.94a.99.99 0 1 1 0-1.982h2.94c.54 0 .99.444.99.99s-.45.992-.99.992zm-6.86 0h-2.94a.99.99 0 1 1-.01-1.982h2.94c.54 0 .99.444.99.99s-.45.992-.99.992zm-6.86 0h-2.93a.99.99 0 1 1 0-1.982h2.93a.99.99 0 1 1 0 1.982zm-6.86 0h-1.08c-.71 0-1.41-.087-2.09-.258a.996.996 0 0 1-.72-1.204.984.984 0 0 1 1.2-.717c.52.13 1.05.197 1.6.197h1.1c.54 0 .99.444.99.99s-.45.992-.99.992zm45.02-.314c-.43 0-.82-.28-.95-.71a.995.995 0 0 1 .66-1.24c.81-.25 1.57-.65 2.23-1.19a.977.977 0 0 1 1.39.14c.34.42.28 1.04-.14 1.39-.87.71-1.85 1.23-2.92 1.55-.1.03-.19.04-.29.04zm-51.31-1.81c-.25 0-.5-.1-.69-.28-.8-.78-1.43-1.7-1.88-2.73a.99.99 0 0 1 .52-1.31c.5-.22 1.08.01 1.3.52.34.78.82 1.48 1.43 2.08.39.38.4 1.01.01 1.4-.19.2-.45.3-.71.3zm56.15-2.71c-.12 0-.24-.02-.35-.07-.51-.2-.77-.77-.58-1.28.27-.74.42-1.51.42-2.3v-.237c0-.547.44-.99.99-.99s.99.443.99.99v.232c0 1.03-.19 2.036-.55 2.995a.997.997 0 0 1-.93.64zm-58.41-3.53c-.55 0-.99-.45-.99-.99v-2.94c0-.55.44-.99.99-.99.54 0 .99.44.99.99v2.93c0 .55-.45.99-.99.99zm58.89-3.27c-.55 0-.99-.45-.99-.99v-2.94c0-.55.44-.99.99-.99s.99.44.99.99v2.94c0 .54-.45.99-.99.99zm-58.89-3.59c-.55 0-.99-.45-.99-.99v-2.94c0-.55.44-.99.99-.99.54 0 .99.44.99.99v2.94c0 .54-.45.99-.99.99zm58.89-3.27a.99.99 0 0 1-.99-.99v-2.93c0-.55.44-.99.99-.99s.99.44.99.99v2.932c0 .547-.45.99-.99.99zm-58.89-3.59c-.55 0-.99-.45-.99-.99v-2.93c0-.55.44-.99.99-.99.54 0 .99.44.99.99v2.93c0 .548-.45.99-.99.99zm58.89-3.268a.99.99 0 0 1-.99-.99v-2.94c0-.546.44-.99.99-.99s.99.444.99.99v2.94c0 .547-.45.99-.99.99zM175.44 77a.992.992 0 0 1-.99-.992v-2.93a.99.99 0 1 1 1.98 0v2.936c0 .55-.442.99-.99.99zm58.89-3.264a.992.992 0 0 1-.99-.99v-2.94a.99.99 0 1 1 1.98 0v2.94a.99.99 0 0 1-.99.99zm-58.89-3.59a.992.992 0 0 1-.99-.99v-2.94a.99.99 0 1 1 1.98 0v2.94c0 .544-.442.99-.99.99zm58.89-3.266a.99.99 0 0 1-.99-.99v-2.94c0-.545.444-.99.99-.99s.99.445.99.99v2.94c0 .55-.442.99-.99.99zm-58.89-3.59a.99.99 0 0 1-.99-.99v-2.94a.99.99 0 0 1 1.98 0v2.94a.99.99 0 0 1-.99.99zm58.89-3.264a.988.988 0 0 1-.99-.99v-2.93a.99.99 0 0 1 1.98 0v2.94c0 .55-.442.99-.99.99zm-58.89-3.59a.988.988 0 0 1-.99-.99v-1.8c0-.397.01-.79.03-1.183a1 1 0 0 1 1.04-.94c.55.027.97.49.94 1.038-.01.36-.02.73-.02 1.09v1.8a.99.99 0 0 1-.99.99zm58.844-3.26a.99.99 0 0 1-.99-.93c-.06-.93-.18-1.87-.36-2.78a.996.996 0 0 1 .784-1.165c.54-.1 1.05.25 1.16.79.19 1 .32 2.02.39 3.04a.988.988 0 0 1-.93 1.05c-.02.01-.04.01-.06.01zM176 49.63a.988.988 0 0 1-.97-1.207c.22-.995.51-1.984.86-2.94a1 1 0 0 1 1.272-.59c.513.19.777.76.59 1.273-.32.873-.586 1.78-.79 2.692a.99.99 0 0 1-.967.77zm56.84-3.12a.995.995 0 0 1-.927-.64c-.332-.87-.726-1.73-1.17-2.556a.99.99 0 0 1 .403-1.343.984.984 0 0 1 1.34.41c.484.9.914 1.84 1.277 2.79a.99.99 0 0 1-.57 1.28.88.88 0 0 1-.353.07zm-54.365-3.238a.994.994 0 0 1-.497-.133 1 1 0 0 1-.36-1.36c.51-.88 1.08-1.74 1.696-2.55a.99.99 0 1 1 1.577 1.2c-.56.74-1.09 1.52-1.55 2.33a.97.97 0 0 1-.86.49zm50.994-2.705c-.29 0-.58-.13-.78-.38-.58-.735-1.21-1.44-1.87-2.093a.993.993 0 0 1-.02-1.4.99.99 0 0 1 1.4-.013c.72.72 1.41 1.48 2.04 2.28.34.43.26 1.06-.17 1.39-.18.15-.4.22-.61.22zm-46.74-2.634a.996.996 0 0 1-.73-.318.984.984 0 0 1 .05-1.4 24.1 24.1 0 0 1 2.37-1.935.99.99 0 0 1 1.38.23.996.996 0 0 1-.23 1.384c-.76.542-1.49 1.14-2.18 1.774-.2.174-.44.262-.68.262zm41.77-2.045c-.2 0-.39-.06-.57-.178-.77-.53-1.58-1.017-2.41-1.446a.99.99 0 0 1 .9-1.765c.9.46 1.78 1 2.62 1.57a.993.993 0 0 1-.57 1.81zm-36.13-1.8c-.37 0-.73-.21-.9-.565a.987.987 0 0 1 .46-1.32c.92-.443 1.87-.83 2.84-1.147a.99.99 0 1 1 .62 1.88c-.89.293-1.76.646-2.61 1.05-.14.067-.29.1-.43.1zm29.99-1.2c-.1 0-.2-.013-.3-.044a21.46 21.46 0 0 0-2.73-.663c-.54-.09-.9-.6-.81-1.14.09-.53.6-.9 1.14-.8 1 .18 2 .42 2.97.73.52.17.81.72.65 1.24-.13.43-.52.7-.95.7zm-23.47-.8a.99.99 0 0 1-.15-1.967c1-.14 2.03-.23 3.05-.25.56.02 1 .43 1.01.98.01.55-.43 1-.98 1.01-.94.02-1.88.1-2.8.23-.05.01-.1.01-.15.01zm16.72-.24h-3.02c-.55 0-.99-.443-.99-.99s.44-.99.99-.99h2.94c.55 0 1.03.443 1.03.99s-.41.99-.95.99zm-6.94 0h-2.94c-.55 0-.99-.443-.99-.99s.44-.99.99-.99h2.93c.55 0 .99.443.99.99s-.44.99-.99.99z"/><path fill="#5E5271" d="M186.33 86.33h-.545a.495.495 0 1 1 0-.99h.545a.495.495 0 1 1 0 .99zm42.782-4.56h-48.434a.495.495 0 1 1 0-.99h48.434a.495.495 0 1 1 0 .99z"/><path fill="#5E5271" d="M226.756 100.508h-2.918a.99.99 0 0 1 0-1.982h2.918a.99.99 0 0 1 0 1.982zm-6.81 0h-2.918a.99.99 0 0 1 0-1.982h2.918a.99.99 0 0 1 0 1.982zm-6.81 0h-2.917a.99.99 0 1 1-.01-1.982h2.92c.54 0 .99.444.99.99s-.45.992-.99.992zm-6.81 0h-2.918a.99.99 0 0 1 0-1.982h2.92a.99.99 0 0 1 0 1.982zm-6.808 0h-2.92a.99.99 0 0 1 0-1.982h2.92a.99.99 0 0 1 0 1.982zm-6.81 0h-2.918a.99.99 0 0 1 0-1.982h2.918a.99.99 0 0 1 0 1.982zm-6.81 0h-2.904c-.547 0-.998-.444-.998-.99s.437-.992.985-.992h2.92a.99.99 0 1 1 0 1.982zm43.214-2.525a.99.99 0 0 1-.99-.99v-2.92a.99.99 0 0 1 1.98 0v2.92a.99.99 0 0 1-.99.99zm-48.43-.06a.99.99 0 0 1-.99-.99v-2.918a.99.99 0 0 1 1.982 0v2.918a.99.99 0 0 1-.99.99zm48.43-6.748a.99.99 0 0 1-.99-.99v-2.92a.99.99 0 0 1 1.98 0v2.92a.99.99 0 0 1-.99.99zm-48.43-.06a.99.99 0 0 1-.99-.99v-2.92a.99.99 0 0 1 1.982 0v2.92a.99.99 0 0 1-.99.99zm48.43-6.748a.99.99 0 0 1-.99-.99v-2.92a.99.99 0 0 1 1.98 0v2.92a.99.99 0 0 1-.99.99zm-48.43-.06a.99.99 0 0 1-.99-.99v-2.92a.99.99 0 0 1 1.982 0v2.92a.99.99 0 0 1-.99.99zm48.43-6.75a.99.99 0 0 1-.99-.99V73.65a.99.99 0 1 1 1.98-.002v2.92a.99.99 0 0 1-.99.99zm-48.43-.06a.99.99 0 0 1-.99-.99V73.59a.99.99 0 0 1 1.982 0v2.918a.99.99 0 0 1-.99.99zm46.147-5.454h-2.95a.99.99 0 1 1 0-1.982h2.92c.54 0 1 .45 1 1s-.43.99-.98.99zm-6.84 0h-2.92a.99.99 0 1 1 0-1.982h2.92c.54 0 .99.45.99 1s-.45.99-.99.99zm-6.81 0h-2.92a.99.99 0 1 1 0-1.982h2.92c.54 0 .99.45.99 1s-.45.99-.99.99zm-6.81 0h-2.92a.99.99 0 1 1 0-1.982h2.92c.54 0 .99.45.99 1s-.44.99-.99.99zm-6.81 0h-2.92a.99.99 0 1 1 0-1.982h2.92c.54 0 .99.45.99 1s-.45.99-.99.99zm-6.81 0h-2.92a.99.99 0 1 1 0-1.982h2.92c.54 0 .99.45.99 1s-.45.99-.99.99zm-6.81 0h-2.92a.99.99 0 1 1 0-1.982h2.92c.54 0 .99.45.99 1s-.45.99-.99.99z"/><g fill="#5E5271"><path d="M216.026 31.363a.495.495 0 0 1-.495-.495v-3.102c0-4.825-4.48-8.75-9.98-8.75-5.51 0-9.99 3.925-9.99 8.75v3.102c0 .274-.22.495-.49.495s-.49-.222-.49-.495v-3.102c0-5.372 4.93-9.742 10.98-9.742s10.98 4.37 10.98 9.742v3.102c0 .273-.22.495-.49.495z"/><path d="M211.306 31.363a.495.495 0 0 1-.495-.495v-3.102c0-4.825-2.36-8.75-5.26-8.75s-5.27 3.925-5.27 8.75v3.102c0 .274-.22.495-.49.495s-.49-.222-.49-.495v-3.102c0-5.372 2.81-9.742 6.26-9.742s6.26 4.37 6.26 9.742v3.102c0 .273-.22.495-.49.495z"/></g><path fill="#5E5271" d="M300.89 59.392a.496.496 0 0 1-.496-.495v-2.575a.495.495 0 0 1 .99 0v2.575c0 .274-.22.495-.494.495zm-.144-7.172a.494.494 0 0 1-.49-.436c-1.174-9.768-9.49-17.134-19.346-17.134h-6.49a.495.495 0 1 1 0-.99h6.49c10.357 0 19.096 7.74 20.328 18.007a.494.494 0 0 1-.433.55l-.06.003zm-51.472 8.7a.493.493 0 0 1-.495-.494V54.13c0-10.788 8.42-19.763 19.18-20.43.29-.01.51.19.52.462a.5.5 0 0 1-.47.525c-10.24.636-18.26 9.177-18.26 19.444v6.3c0 .28-.23.5-.5.5zm0 5.794a.495.495 0 0 1-.495-.495v-2.58c0-.28.22-.5.49-.5s.49.22.49.49v2.57c0 .27-.22.49-.5.49z"/><path fill="#FFF" d="M266.91 51.68l8.18-8.178 8.18 8.18-8.182 8.178z"/><path fill="#5E5271" d="M275.082 60.34a.49.49 0 0 1-.35-.145l-8.18-8.18a.494.494 0 0 1 0-.7l8.18-8.18a.496.496 0 0 1 .7 0l8.18 8.18a.492.492 0 0 1 0 .7l-8.18 8.18a.495.495 0 0 1-.35.145zm-7.48-8.674l7.48 7.478 7.48-7.478-7.48-7.478-7.48 7.478z"/><path fill="#5E5271" d="M273.563 54.174a.495.495 0 0 1-.495-.495v-4.04a.495.495 0 0 1 .99-.01v4.04c-.01.27-.23.49-.5.49zm3.04 0a.496.496 0 0 1-.497-.495v-4.04a.496.496 0 0 1 .99-.01v4.04c0 .27-.22.49-.494.49z"/><path fill="#FFF" d="M256.928 87.58h-1.376c-.837 0-1.49-.722-1.4-1.56l.528-4.745h3.04l.606 4.724c.104.83-.55 1.58-1.398 1.58z"/><path fill="#5E5271" d="M256.927 88.075h-1.375c-.54 0-1.06-.23-1.42-.633-.36-.4-.53-.94-.472-1.476l.527-4.747c.028-.26.24-.45.493-.45h3.04c.248 0 .46.18.49.43l.608 4.72c.067.54-.103 1.09-.465 1.49-.36.41-.88.64-1.426.64zm-1.803-6.305l-.48 4.305c-.028.26.052.51.227.706.18.2.42.31.69.31h1.38c.27 0 .51-.11.69-.31a.88.88 0 0 0 .23-.71l-.55-4.29h-2.16zm40.196 24.164h-2.937a.99.99 0 0 1 0-1.982h2.938a.99.99 0 1 1 .01 1.982zm-6.853 0h-2.938a.99.99 0 1 1-.01-1.982h2.94c.54 0 .99.444.99.99s-.45.992-.99.992zm-6.856 0h-2.93c-.54 0-.99-.444-.99-.99s.45-.992.99-.992h2.94a.99.99 0 1 1 0 1.982zm-6.85 0h-2.94c-.54 0-.99-.444-.99-.99s.45-.992.99-.992h2.94a.99.99 0 1 1 0 1.982zm-6.85 0h-2.93c-.54 0-.99-.444-.99-.99s.45-.992.99-.992h2.94a.99.99 0 1 1 .01 1.982zm-6.85 0h-2.94c-.54 0-.99-.444-.99-.99s.45-.992.99-.992h2.94a.99.99 0 1 1 0 1.982zm-6.85 0h-1.08c-.7 0-1.4-.087-2.08-.258a.982.982 0 0 1-.71-1.204.984.984 0 0 1 1.2-.717c.52.13 1.05.197 1.6.197h1.08a.99.99 0 1 1 0 1.982zm45.02-.315c-.42 0-.82-.28-.95-.71a1 1 0 0 1 .67-1.24 6.63 6.63 0 0 0 2.24-1.19.99.99 0 0 1 1.4.14c.35.42.29 1.04-.14 1.39a8.35 8.35 0 0 1-2.91 1.55c-.09.03-.19.04-.29.04zm-51.31-1.81c-.25 0-.5-.1-.69-.28a8.41 8.41 0 0 1-1.87-2.73c-.21-.51.02-1.09.52-1.31a.99.99 0 0 1 1.31.52c.34.78.82 1.48 1.44 2.08.4.38.4 1.01.02 1.4-.19.2-.45.3-.71.3zm56.15-2.71a.91.91 0 0 1-.35-.07.99.99 0 0 1-.57-1.28c.28-.73.42-1.51.42-2.3v-.24c0-.55.45-.99.99-.99.55 0 .99.44.99.99v.23c0 1.03-.18 2.04-.54 2.99-.15.39-.52.64-.92.64zm-58.41-3.53c-.54 0-.99-.45-.99-.99v-2.94c0-.55.45-.99.99-.99s.99.44.99.99v2.93c0 .55-.44.99-.99.99zm58.89-3.27c-.54 0-.99-.45-.99-.99v-2.94a.994.994 0 1 1 1.99 0v2.94c0 .54-.44.99-.99.99zm-58.89-3.59c-.54 0-.99-.45-.99-.99v-2.93c0-.55.45-.99.99-.99s.99.44.99.99v2.93c0 .54-.44.99-.99.99zm58.89-3.27c-.54 0-.99-.45-.99-.99v-2.93a.994.994 0 1 1 1.99 0v2.93c0 .54-.44.99-.99.99zm-58.89-3.59c-.54 0-.99-.45-.99-.99v-2.93c0-.55.45-.99.99-.99s.99.44.99.99v2.93c0 .54-.44.99-.99.99zm58.89-3.27c-.54 0-.99-.45-.99-.99v-2.94a.994.994 0 1 1 1.99 0v2.94c0 .54-.44.99-.99.99zM245.66 77a.988.988 0 0 1-.99-.99v-2.94c0-.546.44-.99.99-.99s.99.444.99.99v2.94c0 .546-.44.99-.99.99zm58.89-3.264a.99.99 0 0 1-.99-.99v-2.94c0-.548.44-.99.99-.99s.99.442.99.99v2.94c0 .545-.447.99-.99.99zm-58.89-3.59a.99.99 0 0 1-.99-.99v-2.94c0-.548.44-.99.99-.99s.99.442.99.99v2.936c0 .546-.44.99-.99.99zm58.89-3.266a.988.988 0 0 1-.99-.99v-2.94a.99.99 0 1 1 1.98 0v2.94a.99.99 0 0 1-.99.99zm-58.89-3.59a.988.988 0 0 1-.99-.99v-2.94a.99.99 0 1 1 1.98 0v2.94c0 .547-.44.99-.99.99zm58.89-3.264c-.55 0-.99-.44-.99-.99v-2.93c0-.546.44-.99.99-.99s.99.444.99.99v2.94a.99.99 0 0 1-.99.99zm-58.89-3.59c-.55 0-.99-.44-.99-.99v-1.8c0-.397.01-.79.03-1.18a.98.98 0 0 1 1.032-.94c.546.023.967.49.94 1.034-.02.36-.03.723-.03 1.088v1.8c0 .55-.443.99-.99.99zm58.84-3.26a.994.994 0 0 1-.99-.93c-.06-.93-.18-1.866-.355-2.783a.99.99 0 0 1 1.946-.375c.19 1 .32 2.02.39 3.036a.995.995 0 0 1-.93 1.05h-.07zm-58.29-3.55a.993.993 0 0 1-.967-1.206c.23-.994.52-1.983.87-2.94a.99.99 0 1 1 1.86.683 22.3 22.3 0 0 0-.79 2.69.985.985 0 0 1-.963.775zm56.843-3.12c-.4 0-.77-.246-.92-.64-.33-.87-.723-1.73-1.17-2.556a.99.99 0 0 1 .406-1.343.99.99 0 0 1 1.34.4c.48.9.91 1.84 1.27 2.79a1.002 1.002 0 0 1-.94 1.345zm-54.36-3.236a.993.993 0 0 1-.852-1.487 23.64 23.64 0 0 1 1.7-2.55.992.992 0 0 1 1.58 1.2c-.56.74-1.09 1.526-1.55 2.336a.97.97 0 0 1-.86.49zm51-2.71a.98.98 0 0 1-.78-.38c-.58-.735-1.21-1.44-1.876-2.093a.99.99 0 1 1 1.386-1.414c.722.714 1.41 1.48 2.04 2.28a.988.988 0 0 1-.17 1.39.965.965 0 0 1-.61.215zm-46.74-2.634a.99.99 0 0 1-.68-1.718 24.128 24.128 0 0 1 2.375-1.937.99.99 0 0 1 1.15 1.61c-.76.55-1.49 1.14-2.174 1.78a.986.986 0 0 1-.677.27zm41.76-2.045a.985.985 0 0 1-.563-.18 22.202 22.202 0 0 0-2.406-1.44.988.988 0 1 1 .913-1.75c.905.47 1.787 1 2.623 1.58a.995.995 0 0 1-.566 1.81zm-36.126-1.8c-.37 0-.722-.2-.893-.56a.99.99 0 0 1 .465-1.32c.92-.44 1.88-.82 2.84-1.14a.99.99 0 0 1 1.25.63c.17.52-.11 1.08-.63 1.26-.89.29-1.76.65-2.61 1.05-.14.07-.29.1-.43.1zm29.996-1.2c-.1 0-.2-.01-.3-.04-.89-.28-1.81-.5-2.73-.66a.997.997 0 0 1-.81-1.15c.1-.54.61-.9 1.15-.8 1.004.18 2.005.42 2.98.73a1 1 0 0 1-.304 1.95zm-23.47-.79a.984.984 0 0 1-.146-1.96c1.004-.15 2.03-.23 3.05-.25.528.02 1 .43 1.01.98a.99.99 0 0 1-.974 1.01c-.932.02-1.88.1-2.792.23-.05.01-.09.01-.14.01zm16.72-.24h-3.02c-.55 0-.99-.44-.99-.99s.44-.99.99-.99h2.935c.55 0 1.036.45 1.036.99s-.4.99-.95.99zm-6.94 0h-2.94c-.546 0-.99-.44-.99-.99s.444-.99.99-.99h2.94c.546 0 .99.45.99.99s-.444.99-.99.99z"/><path fill="#5E5271" d="M256.514 86.33h-.546a.495.495 0 1 1 0-.99h.546c.274 0 .495.222.495.495s-.23.495-.5.495zm42.782-4.56h-48.434a.495.495 0 1 1 0-.99h48.434a.495.495 0 0 1 .005.99z"/><path fill="#5E5271" d="M296.94 100.508h-2.92a.99.99 0 0 1 0-1.982h2.92a.99.99 0 0 1 0 1.982zm-6.81 0h-2.918a.99.99 0 0 1 0-1.982h2.918a.99.99 0 0 1 0 1.982zm-6.81 0h-2.917a.99.99 0 0 1 0-1.982h2.918a.99.99 0 1 1 .01 1.982zm-6.81 0h-2.917a.99.99 0 0 1 0-1.982h2.918a.99.99 0 1 1 .01 1.982zm-6.808 0h-2.918a.99.99 0 0 1 0-1.982h2.918a.99.99 0 0 1 0 1.982zm-6.81 0h-2.918a.99.99 0 0 1 0-1.982h2.918a.99.99 0 0 1 0 1.982zm-6.81 0h-2.904c-.547 0-.998-.444-.998-.99s.437-.992.984-.992h2.918a.99.99 0 0 1 0 1.982zm43.215-2.524a.99.99 0 0 1-.99-.99v-2.92a.99.99 0 1 1 1.98 0v2.92a.99.99 0 0 1-.99.99zm-48.43-.06a.99.99 0 0 1-.99-.99v-2.92a.99.99 0 0 1 1.982 0v2.92c0 .546-.45.99-1 .99zm48.43-6.75a.99.99 0 0 1-.99-.99v-2.918a.99.99 0 1 1 1.98 0v2.918c0 .548-.442.99-.99.99zm-48.43-.06a.99.99 0 0 1-.99-.99v-2.918a.99.99 0 0 1 1.982 0v2.918c0 .548-.45.99-1 .99zm48.43-6.747a.99.99 0 0 1-.99-.99v-2.92a.99.99 0 1 1 1.98 0v2.92a.99.99 0 0 1-.99.99zm-48.43-.06a.99.99 0 0 1-.99-.99v-2.92a.99.99 0 0 1 1.982 0v2.92c0 .546-.45.99-1 .99zm48.43-6.75a.99.99 0 0 1-.99-.99V73.65a.99.99 0 1 1 1.98 0v2.918a.99.99 0 0 1-.99.99zm-48.43-.06a.99.99 0 0 1-.99-.99V73.59a.99.99 0 0 1 1.982 0v2.918c0 .547-.45.99-1 .99zm46.147-5.454h-2.946a.99.99 0 0 1 0-1.982h2.92c.547 0 1.004.45 1.004 1s-.43.99-.978.99zm-6.836 0h-2.92a.99.99 0 0 1 0-1.982h2.92a.996.996 0 0 1 0 1.99zm-6.81 0h-2.918a.99.99 0 0 1 0-1.982h2.918c.547 0 .99.45.99 1s-.443.99-.99.99zm-6.81 0h-2.918a.99.99 0 0 1 0-1.982h2.918c.547 0 .99.45.99 1s-.443.99-.99.99zm-6.81 0h-2.918a.99.99 0 0 1 0-1.982h2.918c.547 0 .99.45.99 1s-.442.99-.99.99zm-6.81 0h-2.918a.99.99 0 0 1 0-1.982h2.92c.546 0 .99.45.99 1s-.444.99-.99.99zm-6.81 0h-2.918a.99.99 0 0 1 0-1.982h2.92c.546 0 .99.45.99 1s-.443.99-.99.99z"/><g fill="#5E5271"><path d="M286.21 31.363a.495.495 0 0 1-.495-.495v-3.102c0-4.825-4.48-8.75-9.988-8.75-5.507 0-9.988 3.925-9.988 8.75v3.102a.5.5 0 0 1-1 0v-3.102c0-5.372 4.92-9.742 10.98-9.742s10.98 4.37 10.98 9.742v3.102c0 .273-.22.495-.5.495z"/><path d="M281.49 31.363a.495.495 0 0 1-.495-.495v-3.102c0-4.825-2.363-8.75-5.268-8.75s-5.268 3.925-5.268 8.75v3.102a.5.5 0 0 1-1 0v-3.102c0-5.372 2.8-9.742 6.26-9.742 3.45 0 6.26 4.37 6.26 9.742v3.102c0 .273-.23.495-.5.495z"/></g><path fill="#857B98" d="M248.428 204.066v19.725c0 8.85-7.17 16.02-16.02 16.02-8.838 0-16-7.17-16-16.01v-19.73h32.02z"/><path fill="#5E5271" d="M232.41 241.292c-9.643 0-17.487-7.85-17.487-17.502v-19.725c0-.82.665-1.486 1.486-1.486h32.01c.82 0 1.48.66 1.48 1.48v19.72c0 9.65-7.85 17.5-17.51 17.5zm-14.514-35.74v18.238c0 8.012 6.51 14.53 14.513 14.53 8.01 0 14.53-6.518 14.53-14.53v-18.238h-29.05z"/><path fill="#E1EDF8" d="M82.41 214.875H475.2v13.435H82.41z"/><path fill="#5F5371" d="M475.2 229.796H82.41c-.82 0-1.486-.666-1.486-1.486v-13.435c0-.82.665-1.486 1.486-1.486H475.2c.82 0 1.485.66 1.485 1.48v13.43c0 .82-.665 1.48-1.486 1.48zm-391.303-2.972h389.816V216.36H83.897v10.464z"/><path fill="#E1EDF8" d="M82.41 105.137H475.2v13.435H82.41z"/><path fill="#5F5371" d="M475.2 120.06H82.41c-.82 0-1.486-.666-1.486-1.487v-13.435c0-.82.665-1.486 1.486-1.486H475.2c.82 0 1.485.665 1.485 1.486v13.435c0 .82-.665 1.486-1.486 1.486zm-391.303-2.974h389.816v-10.463H83.897v10.463z"/><path fill="#FFF" d="M475.2 111.665H82.41a1.49 1.49 0 0 1 0-2.976H475.2a1.48 1.48 0 1 1 0 2.96zm0 109.725H82.41a1.487 1.487 0 0 1 0-2.972H475.2a1.486 1.486 0 0 1 0 2.972z"/><path fill="#E1EDF8" d="M75.692 12.794H89.13v255.72H75.69z"/><path fill="#5F5371" d="M89.13 270H75.69c-.82 0-1.486-.666-1.486-1.486V12.794c0-.82.665-1.485 1.486-1.485h13.44c.82 0 1.485.66 1.485 1.48v255.72c0 .82-.665 1.48-1.486 1.48zm-11.952-2.972h10.464V14.28H77.178v252.75z"/><path fill="#E1EDF8" d="M468.48 12.794h13.437v255.72H468.48z"/><path fill="#5F5371" d="M481.917 270H468.48c-.82 0-1.485-.666-1.485-1.486V12.794c0-.82.666-1.485 1.486-1.485h13.44c.82 0 1.49.66 1.49 1.48v255.72c0 .82-.66 1.48-1.48 1.48zm-11.95-2.972h10.463V14.28h-10.463v252.75z"/><path fill="#5E5271" d="M82.41 59.6a2.766 2.766 0 0 1-2.762-2.762 2.766 2.766 0 0 1 2.762-2.762 2.766 2.766 0 0 1 2.762 2.762A2.764 2.764 0 0 1 82.41 59.6zm0-3.542a.78.78 0 0 0 0 1.56.78.78 0 0 0 0-1.56zm0 30.99a2.766 2.766 0 0 1-2.762-2.762 2.766 2.766 0 0 1 2.762-2.762 2.766 2.766 0 0 1 2.762 2.762 2.764 2.764 0 0 1-2.762 2.762zm0-3.542a.78.78 0 0 0 0 1.56.78.78 0 0 0 0-1.56zm0 30.99a2.765 2.765 0 0 1-2.762-2.76 2.766 2.766 0 0 1 2.762-2.763 2.766 2.766 0 0 1 2.762 2.762 2.764 2.764 0 0 1-2.762 2.762zm0-3.54a.78.78 0 0 0 0 1.56.78.78 0 0 0 0-1.56zm0 31.814c-1.977 0-3.586-1.61-3.586-3.587s1.61-3.585 3.586-3.585a3.59 3.59 0 0 1 3.586 3.585 3.59 3.59 0 0 1-3.586 3.586zm0-5.19c-.885 0-1.604.72-1.604 1.603 0 .884.72 1.604 1.604 1.604.885 0 1.604-.72 1.604-1.604 0-.884-.72-1.603-1.604-1.603zm0-104.605c-1.977 0-3.586-1.61-3.586-3.585s1.61-3.585 3.586-3.585c1.977 0 3.586 1.61 3.586 3.585s-1.608 3.585-3.586 3.585zm0-5.19a1.606 1.606 0 0 0 0 3.21c.885 0 1.604-.72 1.604-1.605s-.72-1.604-1.604-1.604zm0 224.665a3.59 3.59 0 0 1-3.586-3.585 3.59 3.59 0 0 1 3.586-3.585 3.59 3.59 0 0 1 3.586 3.585 3.59 3.59 0 0 1-3.586 3.586zm0-5.19c-.885 0-1.604.72-1.604 1.604 0 .884.72 1.604 1.604 1.604.885 0 1.604-.72 1.604-1.604 0-.884-.72-1.603-1.604-1.603zm0-77.84a2.766 2.766 0 0 1-2.762-2.762 2.766 2.766 0 0 1 2.762-2.762 2.766 2.766 0 0 1 2.762 2.762 2.764 2.764 0 0 1-2.762 2.762zm0-3.542a.78.78 0 0 0 0 1.56.78.78 0 0 0 0-1.56zm0 30.992c-1.523 0-2.762-1.24-2.762-2.763s1.24-2.762 2.762-2.762c1.523 0 2.762 1.24 2.762 2.762s-1.238 2.762-2.762 2.762zm0-3.544a.78.78 0 0 0 0 1.56.78.78 0 0 0 0-1.56zm0 30.99c-1.523 0-2.762-1.24-2.762-2.76s1.24-2.764 2.762-2.764c1.523 0 2.762 1.24 2.762 2.763s-1.238 2.762-2.762 2.762zm0-3.542a.78.78 0 0 0 0 1.56.78.78 0 0 0 0-1.56zM475.2 59.6a2.767 2.767 0 0 1-2.764-2.762c0-1.523 1.24-2.762 2.763-2.762s2.76 1.24 2.76 2.762a2.765 2.765 0 0 1-2.76 2.762zm0-3.542a.78.78 0 1 0 .778.78c0-.43-.35-.78-.78-.78zm0 30.99a2.767 2.767 0 0 1-2.764-2.762c0-1.523 1.24-2.762 2.763-2.762s2.76 1.24 2.76 2.762a2.765 2.765 0 0 1-2.76 2.762zm0-3.542a.78.78 0 1 0 .778.78c0-.43-.35-.78-.78-.78zm0 30.99a2.766 2.766 0 0 1-2.764-2.76c0-1.524 1.24-2.763 2.763-2.763s2.76 1.24 2.76 2.762a2.765 2.765 0 0 1-2.76 2.762zm0-3.54a.78.78 0 1 0 .778.78c0-.43-.35-.78-.78-.78zm0 31.814c-1.978 0-3.588-1.61-3.588-3.587s1.61-3.585 3.587-3.585a3.59 3.59 0 0 1 3.58 3.585 3.592 3.592 0 0 1-3.59 3.586zm0-5.19c-.886 0-1.606.72-1.606 1.603 0 .884.72 1.604 1.605 1.604.88 0 1.6-.72 1.6-1.604 0-.884-.72-1.603-1.61-1.603zm0-104.605c-1.978 0-3.588-1.61-3.588-3.585s1.61-3.585 3.587-3.585c1.97 0 3.58 1.61 3.58 3.585s-1.61 3.585-3.59 3.585zm0-5.19c-.886 0-1.606.72-1.606 1.605s.72 1.604 1.605 1.604c.88 0 1.6-.72 1.6-1.604s-.72-1.604-1.61-1.604zm0 224.665a3.59 3.59 0 0 1-3.588-3.585 3.59 3.59 0 0 1 3.587-3.585c1.97 0 3.58 1.608 3.58 3.585a3.593 3.593 0 0 1-3.59 3.586zm0-5.19c-.886 0-1.606.72-1.606 1.604 0 .884.72 1.604 1.605 1.604.88 0 1.6-.72 1.6-1.604 0-.884-.72-1.603-1.61-1.603zm0-77.84a2.767 2.767 0 0 1-2.764-2.762c0-1.523 1.24-2.762 2.763-2.762s2.76 1.24 2.76 2.762a2.765 2.765 0 0 1-2.76 2.762zm0-3.542a.78.78 0 1 0 .778.78c0-.43-.35-.78-.78-.78zm0 30.992c-1.524 0-2.764-1.24-2.764-2.763s1.24-2.762 2.763-2.762 2.76 1.24 2.76 2.762-1.24 2.762-2.76 2.762zm0-3.544a.78.78 0 1 0 .778.78c0-.43-.35-.78-.78-.78zm0 30.99c-1.524 0-2.764-1.24-2.764-2.76s1.24-2.764 2.763-2.764 2.76 1.24 2.76 2.763-1.24 2.762-2.76 2.762zm0-3.542a.78.78 0 1 0 .778.78c0-.43-.35-.78-.78-.78zm-160.353-33.07c-.074 0-.148-.01-.22-.025l-10.06-2.3c-.45-.11-.77-.51-.77-.97v-4.18c0-.55.443-.99.99-.99s.992.44.992.99v3.38l9.06 2.07 8.65-2.06v-3.39c0-.55.44-.99.99-.99s.99.44.99.99v4.17c0 .46-.32.85-.76.96l-9.64 2.29c-.08.02-.15.02-.23.02zm-25.05 3.91a.99.99 0 0 1-.986-.913l-.8-10.37a.994.994 0 0 1 .92-1.06.99.99 0 0 1 1.07.91l.8 10.38a.995.995 0 0 1-.91 1.07l-.07.01zm4.453-.494a.495.495 0 0 1-.492-.458l-.8-10.378a.494.494 0 0 1 .456-.53c.25-.04.51.18.53.455l.8 10.37a.493.493 0 0 1-.455.53h-.04z"/><path fill="#5E5271" d="M330.064 192.05h-2.973c-.54 0-.99-.442-.99-.99s.45-.99.99-.99h2.98c.55 0 .99.442.99.99s-.44.99-.99.99zm-6.937 0h-2.973c-.548 0-.99-.442-.99-.99s.442-.99.99-.99h2.973c.548 0 .99.442.99.99s-.442.99-.99.99zm-6.937 0h-2.973c-.548 0-.99-.442-.99-.99s.442-.99.99-.99h2.973c.548 0 .99.442.99.99s-.442.99-.99.99zm-6.937 0h-2.973c-.548 0-.99-.442-.99-.99s.442-.99.99-.99h2.973c.548 0 .99.442.99.99s-.442.99-.99.99zm-6.937 0h-2.973c-.548 0-.99-.442-.99-.99s.442-.99.99-.99h2.973c.548 0 .99.442.99.99s-.442.99-.99.99zm-6.937 0h-2.98c-.55 0-.99-.442-.99-.99s.44-.99.99-.99h2.97c.54 0 .99.442.99.99s-.45.99-.99.99zm-6.94 0h-1.03c-.82 0-1.63-.205-2.34-.596a.995.995 0 0 1-.4-1.345.99.99 0 0 1 1.34-.4c.42.23.9.35 1.39.35h1.02c.54 0 .99.44.99.99s-.45.99-.99.99zm44.73-1.548a.995.995 0 0 1-.8-1.587c.38-.507.58-1.112.58-1.748v-.457c0-.548.44-.99.99-.99s.99.442.99.99v.457a4.81 4.81 0 0 1-.99 2.94c-.2.258-.5.395-.8.395zm-49.65-2.136a.994.994 0 0 1-.99-.936c-.01-.088-.01-.176-.01-.264v-2.763c0-.548.44-.99.99-.99s.99.442.99.99v2.916a.993.993 0 0 1-.94 1.04h-.06zm50.39-4.627c-.49 0-.92-.37-.98-.86a2.87 2.87 0 0 0-1.07-1.88 1 1 0 0 1-.16-1.4c.34-.43.96-.5 1.39-.16.99.79 1.63 1.91 1.79 3.16a.99.99 0 0 1-.85 1.11c-.05 0-.09.01-.14.01zm-49.42-2.07a.995.995 0 0 1-.75-1.65c.84-.95 2-1.53 3.26-1.63a.986.986 0 0 1 1.06.91.993.993 0 0 1-.91 1.06c-.75.06-1.44.4-1.94.96a.98.98 0 0 1-.74.33zm44.21-1.31h-2.97a1 1 0 0 1-1-.99c0-.55.44-.99.99-.99h2.97c.55 0 .99.44.99.99s-.44.99-.99.99zm-6.94 0h-2.97c-.55 0-.99-.45-.99-.99 0-.55.44-.99.99-.99h2.97c.54 0 .99.44.99.99s-.45.99-.99.99zm-6.94 0h-2.98c-.55 0-.99-.45-.99-.99 0-.55.44-.99.99-.99h2.97c.55 0 .99.44.99.99s-.44.99-.99.99zm-6.94 0h-2.97c-.55 0-.99-.45-.99-.99 0-.55.44-.99.99-.99h2.97c.55 0 .99.44.99.99s-.45.99-.99.99zm-6.94 0H298a.994.994 0 0 1-.99-.99c0-.55.443-.99.99-.99h2.974c.548 0 .99.44.99.99s-.442.99-.99.99zm-6.94 0h-2.98c-.55 0-.99-.45-.99-.99 0-.55.44-.99.99-.99H294c.55 0 .99.44.99.99s-.44.99-.99.99z"/><path fill="#619DD4" d="M330.064 202.744h-42.648a3.894 3.894 0 0 1-3.894-3.894v-3.896a3.894 3.894 0 0 1 3.894-3.894h42.648a3.894 3.894 0 0 1 3.894 3.894v3.896a3.894 3.894 0 0 1-3.894 3.894z"/><path fill="#5E5271" d="M314.847 199.388c-.074 0-.148-.01-.22-.025l-10.06-2.292c-.45-.1-.77-.5-.77-.96v-4.17c0-.54.443-.99.99-.99s.992.45.992.99v3.39l9.06 2.07 8.65-2.05v-3.39c0-.55.44-.99.99-.99s.99.45.99 1v4.18c0 .46-.32.86-.76.97l-9.64 2.3c-.08.02-.15.03-.23.03zm-25.05 3.912a.99.99 0 0 1-.986-.915l-.8-10.378a.995.995 0 0 1 .92-1.064.988.988 0 0 1 1.07.91l.8 10.38a.988.988 0 0 1-.91 1.063l-.07.003z"/><path fill="#B8D3E9" d="M294.25 202.804a.495.495 0 0 1-.492-.458l-.8-10.378a.494.494 0 0 1 .456-.53c.25-.042.51.18.53.455l.8 10.378a.496.496 0 0 1-.455.54h-.04z" opacity=".5"/><path fill="#5E5271" d="M330.064 203.735h-42.648a4.89 4.89 0 0 1-4.885-4.884v-3.89c0-2.69 2.2-4.88 4.89-4.88h42.65c2.7 0 4.89 2.2 4.89 4.89v3.9c0 2.7-2.19 4.89-4.88 4.89zm-42.648-11.684c-1.6 0-2.903 1.31-2.903 2.91v3.9c0 1.6 1.302 2.91 2.903 2.91h42.648c1.6 0 2.903-1.3 2.903-2.9v-3.89c0-1.6-1.303-2.9-2.903-2.9h-42.648z"/><path fill="#619DD4" d="M330.064 214.407h-42.648a3.894 3.894 0 0 1-3.894-3.894v-3.896a3.894 3.894 0 0 1 3.894-3.894h42.648a3.894 3.894 0 0 1 3.894 3.894v3.896a3.894 3.894 0 0 1-3.894 3.894z"/><path fill="#5E5271" d="M314.847 211.052c-.074 0-.148-.01-.22-.025l-10.06-2.292a.99.99 0 0 1-.77-.966v-4.18c0-.55.443-.99.99-.99s.992.44.992.99v3.38l9.06 2.06 8.65-2.06v-3.39c0-.55.44-1 .99-1s.99.44.99.99v4.17c0 .46-.32.85-.76.96l-9.64 2.3c-.08.01-.15.02-.23.02zm-25.05 3.91a.99.99 0 0 1-.986-.913l-.8-10.38c-.04-.55.37-1.02.92-1.07a.977.977 0 0 1 1.07.91l.8 10.38a.986.986 0 0 1-.91 1.06h-.07z"/><path fill="#B8D3E9" d="M294.25 214.467a.495.495 0 0 1-.492-.458l-.8-10.38a.49.49 0 0 1 .456-.53c.25-.04.51.18.53.45l.8 10.38a.493.493 0 0 1-.455.53h-.04z" opacity=".5"/><path fill="#5E5271" d="M330.064 215.398h-42.648a4.89 4.89 0 0 1-4.885-4.884v-3.897c0-2.693 2.2-4.884 4.89-4.884h42.65a4.89 4.89 0 0 1 4.89 4.884v3.897a4.888 4.888 0 0 1-4.88 4.884zm-42.648-11.684a2.907 2.907 0 0 0-2.903 2.903v3.897c0 1.6 1.302 2.903 2.903 2.903h42.648c1.6 0 2.903-1.302 2.903-2.903v-3.897c0-1.6-1.303-2.903-2.903-2.903h-42.648zm-27.996-16.01c-.074 0-.148-.01-.22-.025l-10.06-2.3c-.45-.11-.77-.51-.77-.97v-4.18c0-.55.444-.99.99-.99.548 0 .992.44.992.99v3.38l9.064 2.07 8.647-2.06v-3.39a.99.99 0 1 1 1.982 0v4.17c0 .46-.315.85-.762.96l-9.633 2.29c-.076.02-.153.02-.23.02zm-25.05 3.91a.99.99 0 0 1-.986-.913l-.8-10.37a.99.99 0 0 1 .912-1.06 1 1 0 0 1 1.064.91l.8 10.38a.998.998 0 0 1-.912 1.07l-.077.01zm4.454-.494a.496.496 0 0 1-.494-.458l-.8-10.378a.494.494 0 0 1 .456-.53c.283-.046.51.182.532.455l.8 10.37c.02.27-.183.51-.456.53h-.038z"/><path fill="#5E5271" d="M271.674 192.05a.99.99 0 1 1 0-1.98h2.963c.547 0 1.013.442 1.013.99a.97.97 0 0 1-.97.99v-.99l-.006.99h-3zm-3.95 0h-2.963c-.54 0-.99-.442-.99-.99s.45-.99.99-.99h2.97c.55 0 .99.442.99.99s-.44.99-.99.99zm-6.913 0h-2.96c-.54 0-.99-.442-.99-.99s.45-.99.99-.99h2.97c.55 0 .99.442.99.99s-.44.99-.99.99zm-6.91 0h-2.96c-.54 0-.99-.442-.99-.99s.45-.99.99-.99h2.96c.55 0 .99.442.99.99s-.44.99-.99.99zm-6.91 0h-2.96c-.54 0-.99-.442-.99-.99s.45-.99.99-.99H247a.99.99 0 1 1 0 1.98zm-6.91 0h-2.96c-.55 0-.99-.442-.99-.99s.45-.99.99-.99h2.97c.55 0 .99.442.99.99s-.44.99-.99.99zm-6.91 0H232c-.765 0-1.496-.17-2.173-.507a.99.99 0 0 1 .883-1.775c.4.2.835.3 1.29.3h1.17a.99.99 0 0 1 0 1.982zm44.81-1.872a.982.982 0 0 1-.51-.144 1 1 0 0 1-.33-1.36c.28-.453.42-.973.42-1.507v-.838c0-.55.45-1 .99-1s.99.44.99.99v.84c0 .89-.24 1.77-.7 2.53-.19.3-.51.47-.85.47zm-49.85-1.645c-.5 0-.93-.385-.98-.898-.01-.155-.02-.31-.02-.468v-2.586c0-.54.45-.99.99-.99a1 1 0 0 1 1 .99v2.59c0 .1 0 .19.01.29a.99.99 0 0 1-.89 1.08c-.03.01-.06.01-.09.01zm50.32-5.155a.99.99 0 0 1-.96-.766 2.88 2.88 0 0 0-1.23-1.768.988.988 0 0 1-.28-1.372 1 1 0 0 1 1.38-.283c1.06.69 1.79 1.75 2.08 2.97.13.53-.21 1.06-.74 1.19-.08.02-.15.02-.23.02zm-49.47-1.558c-.21 0-.43-.072-.62-.22a.998.998 0 0 1-.15-1.392 4.88 4.88 0 0 1 3.16-1.78c.55-.067 1.04.31 1.12.852a.993.993 0 0 1-.85 1.113c-.74.098-1.4.474-1.87 1.058-.19.25-.48.37-.77.37zm44-1.452H270a.99.99 0 0 1 0-1.982h2.963a.99.99 0 0 1 .99.99c0 .55-.442.992-.99.992zm-6.91 0h-2.97a.994.994 0 0 1-.99-.99c0-.55.45-.992.99-.992h2.97c.55 0 .99.443.99.99 0 .55-.44.992-.99.992zm-6.91 0h-2.96a.994.994 0 0 1-.99-.99c0-.55.45-.992.99-.992h2.97c.55 0 .99.443.99.99 0 .55-.44.992-.99.992zm-6.91 0h-2.96a.988.988 0 0 1-.99-.99c0-.55.44-.992.99-.992h2.96c.55 0 1 .443 1 .99 0 .55-.44.992-.99.992zm-6.91 0h-2.96a.988.988 0 0 1-.99-.99c0-.55.44-.992.99-.992h2.96c.55 0 .99.443.99.99 0 .55-.44.992-.99.992zm-6.91 0h-2.96a.988.988 0 0 1-.99-.99c0-.55.44-.992.99-.992h2.96c.55 0 .99.443.99.99 0 .55-.44.992-.99.992z"/><g fill="#5E5271"><path d="M259.42 199.388c-.074 0-.148-.01-.22-.025l-10.06-2.292c-.45-.1-.77-.5-.77-.96v-4.17c0-.54.444-.99.99-.99.548 0 .992.45.992.99v3.39l9.064 2.07 8.647-2.05v-3.39c0-.55.444-.99.99-.99s.992.45.992 1v4.18a1 1 0 0 1-.762.97l-9.633 2.3a.902.902 0 0 1-.23.03zm-25.05 3.912a.99.99 0 0 1-.986-.915l-.8-10.378a.99.99 0 1 1 1.976-.154l.8 10.38a.99.99 0 0 1-.912 1.063l-.077.003zm4.454-.496a.496.496 0 0 1-.494-.458l-.8-10.378a.494.494 0 0 1 .456-.53c.283-.04.51.182.532.455l.8 10.378c.02.28-.183.52-.456.54h-.038z"/><path d="M274.682 203.735h-3.008a.99.99 0 0 1 0-1.982h2.963c.547 0 1.014.443 1.014.99s-.42.992-.96.992zm-6.96 0h-2.96a.99.99 0 1 1-.002-1.982h2.963a.99.99 0 1 1 0 1.982zm-6.91 0h-2.964a.99.99 0 0 1 0-1.982h2.963c.55 0 1 .443 1 .99s-.44.992-.99.992zm-6.915 0h-2.962a.99.99 0 0 1 0-1.982h2.962a.99.99 0 1 1 0 1.982zm-6.912 0h-2.963a.99.99 0 0 1 0-1.982h2.963a.99.99 0 0 1 0 1.982zm-6.914 0h-2.96c-.54 0-.99-.443-.99-.99s.45-.992.99-.992h2.97c.55 0 .99.443.99.99s-.44.992-.99.992zm-6.91 0h-1.17c-.76 0-1.49-.17-2.17-.508a.985.985 0 0 1-.44-1.33c.25-.49.84-.69 1.33-.445.4.2.84.3 1.29.3h1.17c.55 0 .99.444.99.992s-.44.99-.99.99zm44.81-1.876c-.17 0-.35-.05-.51-.15-.46-.29-.61-.9-.33-1.36.28-.46.42-.97.42-1.51V198c0-.55.45-.99.99-.99s1 .44 1 .99v.84c0 .895-.24 1.77-.71 2.533a.98.98 0 0 1-.85.475zm-49.85-1.65c-.5 0-.93-.39-.98-.9-.01-.16-.02-.31-.02-.47v-2.59a.994.994 0 1 1 1.99 0v2.58c0 .09 0 .19.01.28a.995.995 0 0 1-.89 1.08h-.09zm50.32-5.16a.99.99 0 0 1-.96-.77c-.17-.73-.6-1.36-1.23-1.77-.45-.3-.58-.92-.28-1.38.3-.46.92-.58 1.38-.28 1.06.69 1.79 1.75 2.08 2.97.13.53-.21 1.06-.74 1.19-.08.02-.15.02-.22.02zm-49.48-1.55c-.22 0-.44-.07-.62-.22a.997.997 0 0 1-.15-1.39c.79-.99 1.92-1.62 3.16-1.78a.983.983 0 0 1 1.11.85.983.983 0 0 1-.85 1.11c-.74.1-1.4.47-1.87 1.06-.19.24-.48.37-.77.37zm44-1.46H270c-.548 0-.99-.44-.99-.99s.442-.99.99-.99h2.962c.546 0 .99.44.99.99s-.444.99-.99.99zm-6.91 0h-2.96c-.54 0-.99-.44-.99-.99s.45-.99.99-.99h2.97c.55 0 .99.44.99.99s-.44.99-.99.99zm-6.91 0h-2.96c-.54 0-.99-.44-.99-.99s.45-.99.99-.99h2.97c.55 0 .99.44.99.99s-.44.99-.99.99zm-6.91 0h-2.96c-.54 0-.99-.44-.99-.99s.45-.99.99-.99h2.97c.55 0 .99.44.99.99s-.44.99-.99.99zm-6.91 0h-2.96c-.54 0-.99-.44-.99-.99s.45-.99.99-.99h2.97c.55 0 .99.44.99.99s-.44.99-.99.99zm-6.91 0h-2.96c-.54 0-.99-.44-.99-.99s.45-.99.99-.99h2.97c.55 0 .99.44.99.99s-.44.99-.99.99z"/></g><path fill="#619DD4" d="M274.637 214.407H231.99a3.894 3.894 0 0 1-3.895-3.894v-3.896a3.894 3.894 0 0 1 3.894-3.894h42.64a3.89 3.89 0 0 1 3.89 3.894v3.896a3.9 3.9 0 0 1-3.9 3.894z"/><path fill="#5E5271" d="M259.42 211.052c-.074 0-.148-.01-.22-.025l-10.06-2.292a.99.99 0 0 1-.77-.966v-4.18c0-.55.444-.99.99-.99.548 0 .992.44.992.99v3.38l9.064 2.06 8.647-2.06v-3.39a.99.99 0 1 1 1.982-.01v4.17c0 .46-.315.85-.762.96l-9.633 2.3a1.77 1.77 0 0 1-.23.02zm-25.05 3.91a.99.99 0 0 1-.986-.913l-.8-10.38a.998.998 0 0 1 .912-1.07.993.993 0 0 1 1.064.91l.8 10.38a.99.99 0 0 1-.912 1.06h-.077z"/><path fill="#B8D3E9" d="M238.824 214.467a.496.496 0 0 1-.494-.458l-.8-10.38a.49.49 0 0 1 .456-.53c.283-.05.51.18.532.45l.8 10.38c.02.27-.183.51-.456.53h-.038z" opacity=".5"/><path fill="#5E5271" d="M274.636 215.398H231.99a4.89 4.89 0 0 1-4.886-4.884v-3.897a4.89 4.89 0 0 1 4.885-4.884h42.64c2.69 0 4.88 2.192 4.88 4.884v3.897a4.89 4.89 0 0 1-4.89 4.884zm-42.647-11.684a2.906 2.906 0 0 0-2.91 2.903v3.897c0 1.6 1.3 2.903 2.9 2.903h42.64c1.6 0 2.9-1.302 2.9-2.903v-3.897c0-1.6-1.31-2.903-2.91-2.903h-42.64zm116.8-27.024c-1.28 0-2.51-.536-3.38-1.473a.984.984 0 0 1 .05-1.4.988.988 0 0 1 1.4.053c.5.54 1.18.84 1.92.84.54 0 .99.442.99.99s-.44.99-.99.99zm-3.61-4.874a.988.988 0 0 1-.99-.99v-.86c0-.91.26-1.788.76-2.542a.987.987 0 0 1 1.64 1.097c-.29.43-.44.93-.44 1.45v.86c0 .55-.44.99-.99.99zm53.5 3.264a.993.993 0 0 1-.83-1.538c.28-.43.43-.93.43-1.447v-.86c0-.547.44-.99.99-.99s.99.443.99.99v.86c0 .908-.27 1.786-.77 2.542a.997.997 0 0 1-.83.443zm-.36-6.572a.98.98 0 0 1-.73-.318c-.5-.54-1.18-.84-1.92-.84-.55 0-.99-.442-.99-.99s.44-.99.99-.99c1.27 0 2.5.537 3.37 1.475a.994.994 0 0 1-.74 1.663z"/><path fill="#5E5271" d="M395.687 167.262h-2.977a.99.99 0 0 1-.99-.99c0-.55.442-.992.99-.992h2.976a2.59 2.59 0 0 0 1.82-.74.99.99 0 0 1 1.382 1.42 4.56 4.56 0 0 1-3.2 1.302zm-6.94 0h-2.974a.99.99 0 0 1-.99-.99c0-.55.442-.992.99-.992h2.973a.99.99 0 0 1 .99.99c0 .55-.442.992-.99.992zm-6.938 0h-2.98a.988.988 0 0 1-.99-.99c0-.55.44-.992.99-.992h2.97c.54 0 .99.443.99.99 0 .55-.45.992-.99.992zm-6.94 0h-2.97c-.55 0-1-.443-1-.99 0-.55.44-.992.99-.992h2.97c.55 0 .99.443.99.99 0 .55-.44.992-.99.992zm-6.94 0h-2.98a.988.988 0 0 1-.99-.99c0-.55.44-.992.99-.992h2.97c.55 0 .99.443.99.99 0 .55-.44.992-.99.992zm-6.94 0h-2.98a.988.988 0 0 1-.99-.99c0-.55.44-.992.99-.992h2.97c.55 0 .99.443.99.99 0 .55-.44.992-.99.992zm-6.94 0h-2.98a.988.988 0 0 1-.99-.99c0-.55.44-.992.99-.992h2.97c.54 0 .99.443.99.99 0 .55-.45.992-.99.992zm-6.88-.378c-.15 0-.3-.033-.44-.105a4.632 4.632 0 0 1-2.37-2.83.986.986 0 0 1 .67-1.23c.52-.16 1.07.15 1.23.67.2.69.69 1.28 1.34 1.6.49.24.69.84.44 1.33-.18.34-.53.55-.89.55zm52.1-4.308a.988.988 0 0 1-.99-.99v-1.05c0-.47-.13-.93-.37-1.33a.982.982 0 0 1 .35-1.357.98.98 0 0 1 1.35.34c.41.7.63 1.51.63 2.34v1.05c0 .54-.44.99-.99.99zm-54.02-1.85a.987.987 0 0 1-.97-1.208 4.603 4.603 0 0 1 2.19-2.964.987.987 0 1 1 .98 1.717c-.63.37-1.09.98-1.25 1.69-.11.46-.51.77-.97.77zm50.18-2.804h-2.98c-.55 0-1-.443-1-.99s.44-.992.99-.992h2.97c.54 0 .99.443.99.99s-.45.992-.99.992zm-6.94 0h-2.98c-.55 0-.99-.443-.99-.99s.44-.992.99-.992h2.97c.55 0 .99.443.99.99s-.44.992-.99.992zm-6.94 0h-2.97c-.55 0-.99-.443-.99-.99s.44-.992.99-.992h2.97c.54 0 .99.443.99.99s-.45.992-.99.992zm-6.94 0h-2.98c-.55 0-.99-.443-.99-.99s.44-.992.99-.992h2.97c.55 0 .99.443.99.99s-.44.992-.99.992zm-6.94 0h-2.97c-.55 0-.99-.443-.99-.99s.44-.992.99-.992h2.97c.55 0 .99.443.99.99s-.45.992-.99.992zm-6.94 0h-2.97c-.55 0-.99-.443-.99-.99s.44-.992.99-.992h2.97c.55 0 .99.443.99.99s-.44.992-.99.992zm-6.94 0h-2.97c-.55 0-.99-.443-.99-.99s.44-.992.99-.992h2.97c.55 0 .99.443.99.99s-.44.992-.99.992z"/><path fill="#B8D3E9" d="M395.683 213.417H348.79a3.605 3.605 0 0 1-3.606-3.606v-2.12c0-1.99 1.614-3.6 3.606-3.6h46.893a3.61 3.61 0 0 1 3.606 3.61v2.13c0 2-1.62 3.61-3.61 3.61z"/><path fill="#5E5271" d="M395.683 214.408H348.79a4.602 4.602 0 0 1-4.597-4.596v-2.13a4.602 4.602 0 0 1 4.598-4.596h46.9c2.54 0 4.6 2.062 4.6 4.597v2.13a4.6 4.6 0 0 1-4.59 4.595zm-46.892-9.34a2.616 2.616 0 0 0-2.61 2.615v2.13c0 1.44 1.18 2.613 2.62 2.613h46.9c1.44 0 2.62-1.173 2.62-2.614v-2.13c0-1.44-1.17-2.614-2.61-2.614h-46.9z"/><path fill="#FFF" d="M395.683 203.988H348.79a3.605 3.605 0 0 1-3.606-3.606v-2.128a3.605 3.605 0 0 1 3.606-3.606h46.893a3.605 3.605 0 0 1 3.606 3.606v2.128a3.61 3.61 0 0 1-3.61 3.606z"/><path fill="#5E5271" d="M395.683 204.98H348.79a4.603 4.603 0 0 1-4.597-4.597v-2.13a4.602 4.602 0 0 1 4.598-4.596h46.9c2.54 0 4.6 2.062 4.6 4.597v2.13a4.6 4.6 0 0 1-4.59 4.595zm-46.892-9.34a2.615 2.615 0 0 0-2.61 2.614v2.13c0 1.44 1.18 2.613 2.62 2.613h46.9c1.44 0 2.62-1.173 2.62-2.614v-2.13c0-1.44-1.17-2.614-2.61-2.614h-46.9z"/><path fill="#FFF" d="M395.683 194.56H348.79a3.606 3.606 0 0 1-3.606-3.607v-2.128a3.605 3.605 0 0 1 3.606-3.606h46.893a3.602 3.602 0 0 1 3.606 3.6v2.13c0 1.99-1.62 3.6-3.61 3.6z"/><path fill="#5E5271" d="M395.683 195.55H348.79a4.602 4.602 0 0 1-4.597-4.596v-2.13a4.602 4.602 0 0 1 4.598-4.596h46.9c2.54 0 4.6 2.062 4.6 4.597v2.13a4.6 4.6 0 0 1-4.59 4.595zm-46.892-9.34a2.615 2.615 0 0 0-2.61 2.614v2.13c0 1.44 1.18 2.613 2.62 2.613h46.9c1.44 0 2.62-1.173 2.62-2.614v-2.13c0-1.44-1.17-2.614-2.61-2.614h-46.9z"/><path fill="#B8D3E9" d="M395.683 185.13H348.79a3.605 3.605 0 0 1-3.606-3.606v-2.128a3.605 3.605 0 0 1 3.606-3.606h46.893a3.605 3.605 0 0 1 3.606 3.606v2.128c0 1.99-1.62 3.606-3.61 3.606z"/><path fill="#5E5271" d="M395.683 186.12H348.79a4.602 4.602 0 0 1-4.597-4.596v-2.13a4.602 4.602 0 0 1 4.598-4.596h46.9c2.54 0 4.6 2.062 4.6 4.597v2.13a4.6 4.6 0 0 1-4.59 4.595zm-46.892-9.34a2.616 2.616 0 0 0-2.61 2.615v2.13c0 1.44 1.18 2.613 2.62 2.613h46.9c1.44 0 2.62-1.173 2.62-2.614v-2.13c0-1.44-1.17-2.614-2.61-2.614h-46.9z"/><g fill="#619DD4"><path d="M381.547 189.863a7.67 7.67 0 0 1-.176 1.655h-18.25a8.215 8.215 0 0 1-.17-1.655c0-.61.07-1.2.21-1.77h18.19c.14.568.21 1.158.21 1.77z"/><path d="M381.37 192.51h-18.257a.995.995 0 0 1-.97-.78 8.76 8.76 0 0 1-.196-1.868c0-.69.08-1.367.24-2.01.11-.44.507-.75.962-.75h18.18c.45 0 .85.31.96.753.16.645.24 1.32.24 2.007 0 .642-.07 1.252-.2 1.867-.1.45-.51.78-.97.78zm-17.41-1.983h16.565c.02-.218.03-.44.03-.665 0-.263-.015-.523-.045-.78h-16.536a7.25 7.25 0 0 0-.015 1.445z"/></g><g fill="#619DD4"><path d="M381.547 199.376a7.67 7.67 0 0 1-.176 1.655h-18.25c-.11-.53-.17-1.08-.17-1.65 0-.61.07-1.2.21-1.77h18.19c.14.57.21 1.16.21 1.77z"/><path d="M381.37 202.022h-18.257a.994.994 0 0 1-.97-.78 8.744 8.744 0 0 1-.196-1.867c0-.69.08-1.367.24-2.01.11-.44.507-.75.962-.75h18.18c.45 0 .85.31.96.753.16.645.24 1.32.24 2.007 0 .642-.07 1.252-.2 1.867-.1.455-.51.78-.97.78zm-17.41-1.982h16.565c.02-.218.03-.44.03-.665 0-.263-.015-.523-.045-.78h-16.536a7.233 7.233 0 0 0-.015 1.445z"/></g><g fill="#5E5271" opacity=".2"><path d="M399.118 178.217h-53.782a3.636 3.636 0 0 1 3.45-2.52h46.896a3.605 3.605 0 0 1 3.436 2.52z"/><path d="M399.118 179.208h-53.78a.994.994 0 0 1-.802-.407.963.963 0 0 1-.14-.88 4.61 4.61 0 0 1 4.393-3.2h46.89a4.56 4.56 0 0 1 4.38 3.22c.09.3.04.63-.15.88-.19.26-.49.41-.8.41zm-51.925-1.982h50.07c-.447-.34-1-.537-1.58-.537h-46.896c-.59 0-1.147.19-1.594.53z"/></g><g fill="#5E5271" opacity=".2"><path d="M399.118 187.555h-53.782a3.636 3.636 0 0 1 3.45-2.52h46.896a3.603 3.603 0 0 1 3.436 2.52z"/><path d="M399.118 188.545h-53.78a.994.994 0 0 1-.802-.407.98.98 0 0 1-.14-.888 4.605 4.605 0 0 1 4.393-3.205h46.89c2.02 0 3.78 1.292 4.38 3.214.09.3.04.62-.15.88-.19.25-.49.4-.8.4zm-51.925-1.98h50.07c-.447-.34-1-.538-1.58-.538h-46.896c-.59 0-1.147.196-1.594.537z"/></g><g fill="#5E5271" opacity=".2"><path d="M399.118 196.892h-53.782a3.636 3.636 0 0 1 3.45-2.52h46.896a3.603 3.603 0 0 1 3.436 2.52z"/><path d="M399.118 197.883h-53.78a.994.994 0 0 1-.802-.407.98.98 0 0 1-.14-.888 4.605 4.605 0 0 1 4.393-3.205h46.89c2.02 0 3.78 1.292 4.38 3.214.09.3.04.628-.15.882-.19.25-.49.4-.8.4zm-51.925-1.982h50.07c-.447-.33-1-.53-1.58-.53h-46.896c-.59 0-1.147.2-1.594.54z"/></g><g fill="#5E5271" opacity=".2"><path d="M399.118 206.23h-53.782a3.635 3.635 0 0 1 3.45-2.52h46.896a3.603 3.603 0 0 1 3.436 2.52z"/><path d="M399.118 207.22h-53.78a.994.994 0 0 1-.802-.407.98.98 0 0 1-.14-.888 4.605 4.605 0 0 1 4.393-3.205h46.89c2.02 0 3.78 1.292 4.38 3.214a.993.993 0 0 1-.95 1.286zm-51.925-1.982h50.07c-.447-.34-1-.537-1.58-.537h-46.896c-.59 0-1.147.2-1.594.54z"/></g><path fill="#FFF" d="M396.3 43.508h57.94v61.617H396.3z"/><path fill="#E1EDF8" d="M396.3 43.508h57.94v61.617H396.3z"/><g fill="#B8D3E9"><path d="M432.473 56.333l-3.784-2.94-3.82 2.94-3.4-2.725-3.41 2.725V43.508h14.4"/><path d="M418.066 56.828a.496.496 0 0 1-.495-.496V43.508c0-.274.23-.495.5-.495h14.41c.28 0 .5.222.5.495v12.824c0 .19-.1.362-.28.445a.49.49 0 0 1-.52-.054l-3.48-2.703-3.51 2.7c-.18.14-.43.13-.61-.01l-3.08-2.48-3.1 2.475c-.08.07-.19.11-.3.11zm3.408-3.715c.11 0 .22.036.31.11l3.092 2.48L428.388 53a.498.498 0 0 1 .606 0l2.985 2.32V44.003h-13.42V55.3l2.6-2.08c.09-.072.2-.11.31-.11z"/></g><path fill="#5E5271" d="M454.24 106.61H396.3c-.82 0-1.486-.664-1.486-1.485V43.508c0-.82.666-1.486 1.486-1.486h57.94c.82 0 1.485.665 1.485 1.486v61.617c0 .82-.665 1.486-1.486 1.486zm-56.453-2.97h54.966V44.994h-54.966v58.644z"/><g fill="#FFF"><path d="M427.626 98.75h18.698c.595 0 1.077-.48 1.077-1.076v-9.54c0-.594-.48-1.076-1.07-1.076h-18.7c-.59 0-1.07.482-1.07 1.077v9.54c0 .594.48 1.076 1.08 1.076z"/><path d="M446.324 99.247h-18.698a1.574 1.574 0 0 1-1.573-1.572v-9.54c0-.867.706-1.573 1.573-1.573h18.698c.867 0 1.573.705 1.573 1.573v9.54c0 .866-.706 1.572-1.573 1.572zm-18.698-11.694c-.32 0-.582.26-.582.582v9.54c0 .32.26.582.582.582h18.698c.32 0 .582-.26.582-.582v-9.54c0-.32-.26-.582-.582-.582h-18.698z"/></g><path fill="#619DD4" d="M428.844 89.86h10.985v1.983h-10.99zm0 4.105h6.14v1.982h-6.14z"/><path fill="#8FCBD6" d="M139.772 30.162h-13.47c-12.75 0-23.086 10.336-23.086 23.085v44.365c0 4.18 3.39 7.57 7.57 7.57h44.5a7.57 7.57 0 0 0 7.57-7.57V53.247c0-12.75-10.334-23.085-23.084-23.085z"/><path fill="#5E5271" d="M159.174 59.044a.495.495 0 0 1-.495-.495v-2.61c0-.28.22-.5.49-.5s.49.22.49.49v2.61c0 .27-.22.49-.5.49z"/><path fill="#4FB1C3" d="M159.027 52.275a.99.99 0 0 1-.982-.873c-1.16-9.647-9.372-16.92-19.106-16.92h-6.58a.99.99 0 0 1-.99-.992c0-.547.44-.99.99-.99h6.57c10.73 0 19.79 8.024 21.07 18.666a1 1 0 0 1-.99 1.11zM106.9 61.088a.99.99 0 0 1-.992-.99V53.72c0-11.185 8.737-20.49 19.89-21.18a.99.99 0 1 1 .122 1.976c-10.11.628-18.03 9.064-18.03 19.204v6.375a.99.99 0 0 1-.99.99z"/><path fill="#5E5271" d="M106.9 66.46a.496.496 0 0 1-.496-.496v-2.607c0-.274.222-.495.495-.495s.49.222.49.495v2.607c0 .274-.22.495-.5.495z"/><path fill="#4FB1C3" d="M103.216 97.613c0 4.18 3.39 7.57 7.57 7.57h44.5a7.57 7.57 0 0 0 7.572-7.57h-59.642z"/><path fill="#5E5271" d="M155.287 105.678h-44.5c-4.448 0-8.067-3.618-8.067-8.065 0-.274.222-.495.495-.495h59.64c.275 0 .496.222.496.495.01 4.447-3.61 8.065-8.06 8.065zm-51.56-7.57c.256 3.67 3.324 6.58 7.06 6.58h44.5c3.735 0 6.803-2.91 7.058-6.58h-58.617z"/><g fill="#FBB563"><path d="M127.877 30.162v-2.777c0-4.572 2.31-8.278 5.16-8.278 2.848 0 5.158 3.706 5.158 8.278v2.777h4.226v-2.777c0-4.572-4.2-8.278-9.38-8.278-5.18 0-9.38 3.706-9.38 8.278v2.777h4.23z"/><path d="M142.42 30.657h-4.225a.495.495 0 0 1-.495-.495v-2.777c0-4.29-2.092-7.782-4.664-7.782-2.57 0-4.664 3.49-4.664 7.782v2.777a.495.495 0 0 1-.495.495h-4.226a.493.493 0 0 1-.49-.495v-2.777c0-4.838 4.43-8.773 9.88-8.773s9.88 3.935 9.88 8.773v2.777c0 .273-.22.495-.49.495zm-3.73-.99h3.236v-2.283c0-3.318-2.385-6.158-5.733-7.275 1.506 1.57 2.498 4.25 2.498 7.27v2.28zm-14.543 0h3.235v-2.283c0-3.025.992-5.697 2.498-7.275-3.348 1.11-5.733 3.95-5.733 7.27v2.28z"/></g><path fill="#5E5271" d="M155.22 100.678h-44.368a3.334 3.334 0 0 1-3.33-3.33v-24.15a3.333 3.333 0 0 1 3.33-3.33h44.368a3.334 3.334 0 0 1 3.33 3.33v24.15a3.333 3.333 0 0 1-3.33 3.33zm-44.367-28.83c-.744 0-1.35.606-1.35 1.35v24.15a1.35 1.35 0 0 0 1.35 1.347h44.368c.75 0 1.35-.605 1.35-1.348v-24.15c0-.744-.6-1.348-1.35-1.348h-44.36z"/><path fill="#FBB563" d="M124.755 51.232l8.285-8.282 8.283 8.285-8.285 8.282z"/><path fill="#5E5271" d="M133.036 60.5a.99.99 0 0 1-.7-.29l-8.286-8.284a.99.99 0 0 1 0-1.4l8.285-8.284a.99.99 0 0 1 1.4 0l8.286 8.283a.984.984 0 0 1 0 1.4l-8.28 8.284c-.19.19-.44.29-.7.29zm-6.883-9.275l6.883 6.882 6.883-6.882-6.89-6.882-6.89 6.882z"/><path fill="#8FCBD6" d="M155.22 70.86h-44.368a2.34 2.34 0 0 0-2.34 2.338v24.15a2.34 2.34 0 0 0 2.34 2.34h44.37a2.34 2.34 0 0 0 2.338-2.34v-24.15a2.34 2.34 0 0 0-2.34-2.34z"/><path fill="#5E5271" d="M131.497 54.255a.99.99 0 0 1-.99-.99V49.17a.99.99 0 1 1 1.98 0v4.092a.99.99 0 0 1-.99.99zm3.08 0a.99.99 0 0 1-.99-.99V49.17a.99.99 0 1 1 1.98 0v4.092a.99.99 0 0 1-.99.99z"/><path fill="#FBB563" d="M114.65 85.766h-1.39c-.85 0-1.51-.74-1.416-1.584l.648-5.798a1.424 1.424 0 0 1 2.827-.022l.74 5.798c.11.852-.56 1.606-1.42 1.606z"/><path fill="#5E5271" d="M114.65 86.262h-1.39a1.927 1.927 0 0 1-1.91-2.135l.65-5.798c.108-.98.93-1.71 1.908-1.71.965 0 1.784.72 1.906 1.68l.74 5.79a1.92 1.92 0 0 1-1.904 2.16zm-.74-8.65a.93.93 0 0 0-.925.827l-.648 5.79a.92.92 0 0 0 .23.72c.18.2.426.31.694.31h1.39a.942.942 0 0 0 .93-1.05l-.74-5.8a.93.93 0 0 0-.92-.82z"/><path fill="#4FB1C3" d="M157.56 79.375h-49.047v-6.177a2.34 2.34 0 0 1 2.34-2.34h44.368c1.3 0 2.34 1.048 2.34 2.34v6.177z"/><path fill="#5E5271" d="M155.287 106.173h-44.5c-4.722 0-8.562-3.84-8.562-8.56V53.245c0-13.275 10.8-24.074 24.078-24.074h13.467c13.277 0 24.078 10.8 24.078 24.08v44.37c0 4.72-3.84 8.56-8.56 8.56zm-28.984-75.02c-12.184 0-22.096 9.91-22.096 22.09v44.37a6.587 6.587 0 0 0 6.58 6.578h44.5c3.628 0 6.58-2.95 6.58-6.57V53.25c0-12.18-9.913-22.09-22.097-22.09h-13.467z"/><path fill="#FFF" d="M216.406 223.793c0 8.84 7.164 16.01 16.006 16.01H87.595c-8.842 0-16.006-7.17-16.006-16.01V54.653H216.4v169.14z"/><path fill="#5E5271" d="M232.412 241.29H87.595c-9.645 0-17.492-7.85-17.492-17.497V54.653c0-.822.665-1.487 1.486-1.487H216.4c.82 0 1.486.665 1.486 1.486v169.14c0 8.01 6.514 14.525 14.52 14.525a1.487 1.487 0 0 1 0 2.972zM73.076 56.137v167.655c0 8.01 6.514 14.524 14.52 14.524h135.07c-4.67-3.145-7.747-8.482-7.747-14.524h1.48-1.49V56.138H73.07z"/><path fill="#619DD4" d="M182.88 99.71c-.383 0-.754-.15-1.032-.42l-5.08-4.91a1.487 1.487 0 1 1 2.067-2.137l3.878 3.748 11.617-15.22c.493-.65 1.43-.77 2.08-.28.652.5.78 1.43.28 2.09l-12.63 16.55a1.47 1.47 0 0 1-1.07.58c-.04.01-.077.01-.114.01z"/><path fill="#FBB563" d="M182.96 105.84c-7.075 0-12.83-5.756-12.83-12.83s5.755-12.83 12.83-12.83c1.55 0 3.063.274 4.5.813a1.486 1.486 0 1 1-1.042 2.783 9.803 9.803 0 0 0-3.458-.623c-5.436 0-9.858 4.422-9.858 9.857s4.422 9.856 9.858 9.856 9.86-4.42 9.86-9.856c0-.13-.003-.26-.01-.388a1.487 1.487 0 0 1 2.97-.125c.01.17.02.342.02.513 0 7.074-5.75 12.83-12.83 12.83z"/><path fill="#619DD4" d="M182.88 155.703a1.49 1.49 0 0 1-1.032-.418l-5.08-4.91a1.486 1.486 0 0 1 2.067-2.136l3.878 3.74 11.616-15.23c.49-.66 1.43-.78 2.08-.28.65.49.78 1.43.28 2.08l-12.63 16.55c-.26.33-.65.55-1.07.58h-.12z"/><path fill="#FBB563" d="M182.96 161.834c-7.075 0-12.83-5.755-12.83-12.83 0-7.072 5.755-12.827 12.83-12.827 1.548 0 3.062.273 4.5.81.77.29 1.16 1.146.872 1.915a1.485 1.485 0 0 1-1.913.87 9.895 9.895 0 0 0-3.46-.622c-5.44 0-9.86 4.42-9.86 9.856s4.42 9.857 9.86 9.857 9.86-4.422 9.86-9.857c0-.13-.01-.26-.01-.387-.04-.83.6-1.52 1.42-1.55.84-.05 1.51.6 1.55 1.42 0 .17.01.34.01.51 0 7.07-5.76 12.83-12.83 12.83z"/><path fill="#619DD4" d="M182.88 211.242a1.49 1.49 0 0 1-1.032-.418l-5.08-4.91a1.487 1.487 0 0 1 2.067-2.137l3.878 3.748 11.616-15.227a1.48 1.48 0 0 1 2.08-.28c.65.497.78 1.43.28 2.083l-12.63 16.56c-.26.34-.65.55-1.07.58-.04.01-.08.01-.12.01z"/><path fill="#FBB563" d="M182.96 217.373c-7.075 0-12.83-5.755-12.83-12.83s5.755-12.828 12.83-12.828c1.55 0 3.064.274 4.502.813a1.486 1.486 0 1 1-1.044 2.784 9.803 9.803 0 0 0-3.457-.624c-5.43 0-9.85 4.422-9.85 9.857s4.42 9.857 9.86 9.857 9.86-4.422 9.86-9.857c0-.13 0-.26-.01-.39-.03-.82.6-1.51 1.43-1.546.82-.04 1.52.6 1.55 1.42.01.17.01.34.01.51 0 7.07-5.75 12.83-12.83 12.83z"/><g fill="#5E5271" opacity=".2"><path d="M232.41 239.804H87.595c-6.617 0-12.29-4.014-14.732-9.743h144.825c2.432 5.73 8.105 9.75 14.722 9.75z"/><path d="M232.41 241.29H87.595a17.48 17.48 0 0 1-16.1-10.647 1.49 1.49 0 0 1 .128-1.402c.275-.41.74-.66 1.24-.66h144.825c.597 0 1.135.36 1.368.91a14.48 14.48 0 0 0 13.354 8.84 1.49 1.49 0 0 1 0 2.98zm-157.096-9.743a14.502 14.502 0 0 0 12.28 6.77H222.65a17.45 17.45 0 0 1-5.913-6.77H75.315z"/></g><path fill="#8FCBD6" d="M118.63 72.612h-7.327c-6.933 0-12.554 5.62-12.554 12.554v24.126a4.113 4.113 0 0 0 4.11 4.117h24.2c2.27 0 4.11-1.85 4.11-4.12V85.16c0-6.933-5.62-12.553-12.56-12.553z"/><path fill="#4FB1C3" d="M129.18 88.544a.495.495 0 0 1-.496-.495v-1.42c0-.28.222-.5.495-.5s.49.22.49.49v1.41c0 .27-.22.49-.5.49zm-.08-3.95a.498.498 0 0 1-.492-.436c-.632-5.268-5.118-9.24-10.433-9.24H114.6a.495.495 0 0 1 0-.99h3.58c5.82 0 10.73 4.347 11.42 10.113.03.28-.16.52-.43.56h-.06zm-28.347 4.792a.495.495 0 0 1-.495-.495v-3.46c0-6.06 4.733-11.1 10.775-11.47.285 0 .51.19.525.47.017.28-.19.51-.464.53-5.52.35-9.846 4.95-9.846 10.49v3.46c0 .28-.22.5-.495.5zm0 3.19a.495.495 0 0 1-.495-.495v-1.41a.495.495 0 1 1 .99.01v1.42c0 .28-.22.5-.495.5z"/><g fill="#4FB1C3"><path d="M98.75 109.292a4.116 4.116 0 0 0 4.117 4.116h24.2a4.116 4.116 0 0 0 4.116-4.116H98.75z"/><path d="M127.066 113.903h-24.2a4.617 4.617 0 0 1-4.61-4.612c0-.27.22-.49.494-.49h32.433c.274 0 .495.22.495.5a4.62 4.62 0 0 1-4.612 4.62zm-27.787-4.116a3.616 3.616 0 0 0 3.58 3.125h24.2c1.83 0 3.34-1.362 3.58-3.125H99.28z"/></g><g fill="#FBB563"><path d="M112.16 72.612v-1.51c0-2.486 1.257-4.5 2.806-4.5 1.55 0 2.806 2.014 2.806 4.5v1.51h2.298v-1.51c0-2.486-2.285-4.5-5.103-4.5-2.82 0-5.103 2.014-5.103 4.5v1.51h2.297z"/><path d="M120.07 73.107h-2.3a.495.495 0 0 1-.494-.495v-1.51c0-2.17-1.058-4.006-2.31-4.006s-2.31 1.835-2.31 4.006v1.51a.495.495 0 0 1-.495.495h-2.29a.493.493 0 0 1-.49-.495v-1.51c0-2.755 2.51-4.997 5.6-4.997s5.6 2.24 5.6 4.997v1.51c0 .273-.22.495-.49.495zm-1.803-.99h1.307V71.1c0-1.43-.866-2.687-2.167-3.395.537.885.86 2.073.86 3.396v1.02zm-7.91 0h1.308V71.1c0-1.322.323-2.51.86-3.395-1.3.71-2.167 1.966-2.167 3.396v1.02z"/></g><path fill="#5E5271" d="M127.03 111.41h-24.127a2.265 2.265 0 0 1-2.263-2.263V96.015a2.265 2.265 0 0 1 2.263-2.263h24.127a2.266 2.266 0 0 1 2.264 2.263v13.133a2.266 2.266 0 0 1-2.264 2.262zm-24.128-15.676a.28.28 0 0 0-.28.28v13.134c0 .155.125.28.28.28h24.127c.15 0 .28-.125.28-.28V96.015c0-.155-.13-.28-.28-.28H102.9z"/><path fill="#FBB563" d="M110.462 84.074l4.505-4.504 4.505 4.505-4.506 4.505z"/><path fill="#5E5271" d="M114.966 89.065a.49.49 0 0 1-.35-.145l-4.505-4.504a.5.5 0 0 1 0-.7l4.51-4.505c.2-.19.51-.19.7 0l4.51 4.51c.1.1.15.22.15.35s-.05.26-.14.35l-4.5 4.51c-.1.1-.22.15-.35.15zm-3.804-5l3.804 3.805 3.805-3.804-3.8-3.804-3.8 3.804z"/><path fill="#8FCBD6" d="M127.03 94.743h-24.128c-.703 0-1.272.57-1.272 1.272v13.133c0 .703.57 1.272 1.272 1.272h24.128c.703 0 1.272-.57 1.272-1.272V96.015c0-.703-.57-1.272-1.272-1.272z"/><path fill="#5E5271" d="M114.13 85.67a.495.495 0 0 1-.496-.495V82.95c0-.274.222-.495.495-.495s.49.222.49.495v2.225c0 .274-.22.495-.5.495zm1.673 0a.495.495 0 0 1-.495-.495V82.95a.495.495 0 1 1 .99 0v2.225c0 .274-.22.495-.495.495z"/><path fill="#FBB563" d="M104.967 102.85h-.755a.775.775 0 0 1-.77-.862l.35-3.153a.777.777 0 1 1 1.542-.012l.402 3.153a.775.775 0 0 1-.77.873z"/><path fill="#5E5271" d="M104.967 103.345h-.755c-.36 0-.706-.154-.947-.423-.24-.27-.356-.63-.316-.988l.35-3.153c.07-.64.61-1.12 1.26-1.12.64 0 1.18.48 1.26 1.11l.4 3.15c.04.36-.07.73-.31 1-.24.28-.59.43-.96.43zm-.403-4.704a.282.282 0 0 0-.278.25l-.352 3.16c-.012.11.038.18.07.22.03.04.1.1.208.1h.755c.11 0 .18-.06.21-.09s.082-.11.068-.22l-.403-3.15a.275.275 0 0 0-.278-.24z"/><path fill="#4FB1C3" d="M128.302 99.374H101.63v-3.36c0-.702.57-1.27 1.272-1.27h24.128c.703 0 1.272.57 1.272 1.27v3.36z"/><path fill="#5E5271" d="M127.066 114.4h-24.2a5.114 5.114 0 0 1-5.107-5.108V85.164c0-7.468 6.07-13.544 13.54-13.544h7.32c7.47 0 13.54 6.076 13.54 13.544v24.128a5.113 5.113 0 0 1-5.11 5.107zm-15.762-40.8c-6.376 0-11.564 5.187-11.564 11.562v24.128a3.13 3.13 0 0 0 3.126 3.125h24.2a3.13 3.13 0 0 0 3.125-3.125V85.164c0-6.375-5.18-11.562-11.56-11.562h-7.32z"/><path fill="#619DD4" d="M128.22 143.238l-1.608 26.74h-15.05l-.715-11.7-.893-15.04"/><path fill="#B8D3E9" d="M114.05 167.585a.494.494 0 0 1-.493-.465l-1.435-23.85a.495.495 0 0 1 .465-.525c.26-.027.508.192.524.464l1.44 23.85c.02.27-.19.5-.46.52h-.03z"/><path fill="#5E5271" d="M126.612 170.968h-15.05a.99.99 0 0 1-.988-.93l-1.61-26.74a.998.998 0 0 1 .27-.74.988.988 0 0 1 .72-.31h18.267c.28 0 .54.112.73.31.19.2.29.467.27.74l-1.61 26.738a.985.985 0 0 1-.98.932zm-14.117-1.982h13.184l1.48-24.757H111l1.49 24.75z"/><g fill="#5E5271" opacity=".2"><path d="M128.22 143.238l-4.833 14.272h-12.58l-.853-14.272"/><path d="M123.387 158.005h-12.58a.496.496 0 0 1-.496-.465l-.85-14.27a.472.472 0 0 1 .14-.37c.1-.1.23-.157.36-.157h18.27c.16 0 .31.077.41.207.1.13.12.296.07.447l-4.83 14.27a.482.482 0 0 1-.47.338zm-12.114-.99h11.76l4.497-13.28h-17.05l.793 13.28z"/></g><path fill="#619DD4" d="M122.004 154.578H104.28l-1.352-25.234v-2.604h19.076v2.604"/><path fill="#B8D3E9" d="M106.687 155.074a.498.498 0 0 1-.495-.47l-1.353-25.234a.488.488 0 0 1 .46-.522c.26-.016.5.195.52.468l1.35 25.236a.5.5 0 0 1-.47.52c-.01.002-.02.002-.03.002zm10.968-16.327l-5.19 2.964-5.19-2.96v-5.71h10.38"/><path fill="#619DD4" d="M128.22 143.238l-6.216 11.34v-11.34"/><path fill="#5E5271" d="M122.004 155.57a.99.99 0 0 1-.99-.992v-11.34a.99.99 0 0 1 .99-.99h6.217c.35 0 .68.184.86.485a.98.98 0 0 1 .02.98l-6.21 11.34a.988.988 0 0 1-.87.516zm.99-11.34v6.48l3.554-6.48h-3.553z"/><path fill="#5E5271" d="M122.004 155.57h-17.722a.994.994 0 0 1-.99-.94l-1.353-25.234-.01-2.657c0-.55.44-1 .99-1H122c.548 0 .99.44.99.99v27.84c0 .55-.443.99-.99.99zm-16.783-1.982h15.8V127.73h-17.1v1.614l1.3 24.244z"/><path fill="#619DD4" d="M112.466 138.346a.48.48 0 0 1-.246-.065c-2.89-1.65-5.552-2.56-5.58-2.57-.258-.09-.396-.37-.307-.63s.37-.39.63-.3c.108.04 2.62.91 5.492 2.51 2.473-1.5 5.393-2.47 5.52-2.51.258-.08.54.06.626.32.09.26-.05.54-.31.63-.03.01-3.13 1.04-5.55 2.57-.08.05-.17.08-.26.08z"/><path fill="#5E5271" d="M112.466 142.207a.48.48 0 0 1-.246-.065l-5.19-2.965a.5.5 0 0 1-.25-.43v-5.712c0-.274.222-.495.495-.495h10.38c.273 0 .494.222.494.495v5.71c0 .18-.1.343-.25.432l-5.19 2.965a.512.512 0 0 1-.25.065zm-4.694-3.748l4.694 2.68 4.694-2.68v-4.93h-9.388v4.93zm14.232-8.62h-19.076a.5.5 0 0 1 0-1h19.076c.274 0 .495.22.495.49s-.23.49-.5.49z"/><path fill="#5E5271" d="M105.334 129.84a.496.496 0 0 1-.495-.496v-2.603c0-.27.22-.49.49-.49s.49.22.49.5v2.61c0 .28-.22.5-.5.5zm7.026 0a.496.496 0 0 1-.496-.496v-2.603a.493.493 0 1 1 .985.01v2.61c0 .28-.22.5-.5.5zm7.024 0a.496.496 0 0 1-.495-.496v-2.603c0-.27.22-.49.49-.49s.49.22.49.5v2.61c0 .28-.22.5-.5.5zm7.402 37.74h-15.374a.495.495 0 1 1 0-.99h15.374a.495.495 0 0 1 .005.99z"/><path fill="#B8D3E9" d="M126.144 216.324c-.33-10.038-1.023-14.552-1.33-19.8 1.053-.114 3.343.775 5.89 1.896l4.837-8.15-.61-.393a27.104 27.104 0 0 0-14.53-4.22 5.633 5.633 0 0 1-5.42 4.593 5.653 5.653 0 0 1-5.43-4.592c-5.14 0-10.18 1.463-14.53 4.22l-.61.39 4.84 8.152c2.55-1.12 4.84-2.01 5.89-1.896-.3 5.248-1 9.762-1.33 19.8a74.426 74.426 0 0 0 22.36 0z"/><path fill="#5E5271" d="M114.966 218.155a76.03 76.03 0 0 1-11.326-.85.992.992 0 0 1-.842-1.014c.216-6.57.582-10.72.905-14.38.13-1.46.252-2.85.35-4.26-.946.25-2.427.81-4.425 1.69a.98.98 0 0 1-1.25-.4l-4.838-8.15a.99.99 0 0 1 .32-1.34l.62-.39a28.077 28.077 0 0 1 15.06-4.37.99.99 0 0 1 .973.81 4.675 4.675 0 0 0 4.473 3.79c2.15-.04 4.03-1.63 4.434-3.78a.99.99 0 0 1 .974-.81c5.34 0 10.55 1.51 15.06 4.38l.618.39c.452.29.595.88.32 1.35l-4.836 8.15a.98.98 0 0 1-1.25.4c-2-.88-3.48-1.44-4.426-1.68.098 1.41.22 2.8.35 4.26.323 3.66.69 7.81.904 14.39.016.5-.345.94-.842 1.02a75.5 75.5 0 0 1-11.326.85zm-10.157-2.684c6.74.94 13.57.94 20.31 0-.22-6.01-.56-9.92-.87-13.39-.17-1.88-.33-3.65-.43-5.49-.03-.52.36-.98.88-1.04 1.01-.11 2.61.35 5.59 1.63l3.9-6.57a26.2 26.2 0 0 0-13.04-3.93c-.86 2.65-3.34 4.53-6.17 4.58a6.647 6.647 0 0 1-6.21-4.58c-4.62.14-9.11 1.49-13.04 3.93l3.9 6.58c2.97-1.27 4.57-1.73 5.59-1.62.52.06.91.52.88 1.04-.11 1.84-.27 3.62-.43 5.5-.31 3.47-.65 7.38-.87 13.4z"/><path fill="#E1EDF8" d="M97.287 191.637a.494.494 0 0 1-.267-.912c.2-.13 4.974-3.152 11.062-3.152a.495.495 0 1 1 0 .99c-5.8 0-10.48 2.966-10.527 2.996a.517.517 0 0 1-.268.07zm35.37 0a.495.495 0 0 1-.266-.078c-.04-.03-4.74-3-10.52-3-.27 0-.49-.22-.49-.5s.22-.5.5-.5c6.09 0 10.87 3.02 11.07 3.15a.487.487 0 0 1-.26.9z"/><path fill="#619DD4" d="M411.53 212.825v-13.59c0-7.47 6.048-13.53 13.532-13.53h16.13c7.484 0 13.546 6.06 13.546 13.53v13.59c-14.406-3.04-28.808-3.042-43.207 0z"/><path fill="#5E5271" d="M411.53 213.815a.99.99 0 0 1-.99-.992v-13.59c0-8.006 6.515-14.52 14.522-14.52h16.13c8.016 0 14.538 6.514 14.538 14.52v13.59c0 .3-.135.583-.367.77a.976.976 0 0 1-.828.2c-14.207-2.998-28.605-2.998-42.798 0a.97.97 0 0 1-.206.022zm21.6-4.25c6.887 0 13.773.68 20.618 2.045v-12.377c0-6.914-5.632-12.537-12.556-12.537h-16.13c-6.915 0-12.54 5.624-12.54 12.537v12.376c6.84-1.37 13.723-2.05 20.61-2.05z"/><path fill="#B8D3E9" d="M416.062 212.098a122.577 122.577 0 0 1 34.145 0"/><path fill="#619DD4" d="M450.21 213.088a.942.942 0 0 1-.14-.01 122.37 122.37 0 0 0-33.87 0 .993.993 0 0 1-1.12-.844.994.994 0 0 1 .845-1.12 124.24 124.24 0 0 1 34.42 0 .992.992 0 0 1-.136 1.974z"/><path fill="#FFF" d="M448.603 198.956v13.142a100.727 100.727 0 0 0-30.936 0v-13.142c0-6.54 4.792-11.828 10.718-11.828h9.5c5.912 0 10.718 5.287 10.718 11.828z"/><path fill="#5E5271" d="M447.15 193.498a.495.495 0 0 1-.438-.264 11.35 11.35 0 0 0-1.398-2.063.485.485 0 0 1 .054-.69c.21-.18.52-.15.7.06.582.68 1.094 1.44 1.52 2.25.13.24.036.54-.206.67a.492.492 0 0 1-.232.06zm1.453 12.492a.493.493 0 0 1-.495-.494v-6.54c0-.976-.112-1.947-.334-2.883a.496.496 0 0 1 .368-.596.49.49 0 0 1 .596.368c.24 1.012.36 2.058.36 3.112v6.54c0 .273-.22.494-.495.494zm-30.936.195a.495.495 0 0 1-.495-.495v-6.734c0-3.564 1.4-6.95 3.84-9.29a.49.49 0 0 1 .7.014c.19.197.184.51-.014.7-2.246 2.156-3.535 5.28-3.535 8.577v6.734c0 .28-.222.5-.496.5z"/><g fill="#619DD4"><path d="M434.99 198.005h3.235l-5.094-6.124-5.09 6.13h3.24l-3.23 3.89h3.66v2.87h2.88v-2.87h3.66"/><path d="M434.57 205.26h-2.88a.493.493 0 0 1-.494-.494v-2.374h-3.16a.493.493 0 0 1-.38-.81l2.56-3.07h-2.178a.484.484 0 1 1-.38-.8l5.093-6.12c.19-.23.58-.23.77 0l5.1 6.13c.13.15.15.36.07.53-.08.18-.25.29-.45.29h-2.17l2.56 3.08c.12.15.15.35.07.53-.08.18-.25.29-.45.29h-3.16v2.38c0 .27-.22.49-.5.49zm-2.384-.99h1.89v-2.374c0-.274.22-.495.494-.495h2.598l-2.56-3.07a.484.484 0 0 1 .38-.8h2.18l-4.04-4.85-4.037 4.86h2.18c.2 0 .37.11.45.29.08.17.06.38-.07.53l-2.56 3.08h2.6c.28 0 .5.22.5.5v2.37z"/></g><path fill="#619DD4" d="M434.96 187.12h-3.657a2.54 2.54 0 0 1-2.537-2.538v-.857c0-1.4 1.136-2.537 2.537-2.537h3.656c1.4 0 2.53 1.136 2.53 2.537v.857c0 1.4-1.14 2.537-2.54 2.537z"/><path fill="#5E5271" d="M434.96 188.11h-3.656a3.532 3.532 0 0 1-3.528-3.527v-.858a3.532 3.532 0 0 1 3.528-3.527h3.655c1.94 0 3.52 1.582 3.52 3.527v.858a3.537 3.537 0 0 1-3.53 3.527zm-3.657-5.93c-.853 0-1.547.692-1.547 1.544v.858c0 .852.694 1.545 1.547 1.545h3.655c.853 0 1.546-.693 1.546-1.545v-.858c0-.852-.694-1.545-1.546-1.545h-3.655zm26.57 33.09c-.11 0-.223-.014-.335-.04a97.614 97.614 0 0 0-4.55-.944 80.425 80.425 0 0 0-4.166-.717 105.347 105.347 0 0 0-31.364-.01c-1.31.18-2.703.42-4.15.71-1.49.27-3.027.59-4.592.95-.8.18-1.598-.32-1.784-1.12-.185-.8.315-1.6 1.114-1.79 1.61-.37 3.195-.7 4.707-.97 1.474-.3 2.92-.55 4.274-.74a108.104 108.104 0 0 1 32.225 0c1.305.18 2.71.43 4.286.74 1.465.26 3 .58 4.67.97.798.18 1.298.98 1.113 1.78-.15.69-.77 1.15-1.44 1.15z"/><path fill="#E1EDF8" d="M434.92 184.254h-3.554a.99.99 0 0 1-.99-.99c0-.55.442-.992.99-.992h3.555c.55 0 1 .443 1 .99 0 .55-.44.992-.99.992z"/><path fill="#FFF" d="M352.7 67.74h-10.634c-2.457 4.664-3.79 10.4-3.79 16.303v19.61c0 .645.522 1.168 1.167 1.168h15.882c.644 0 1.167-.52 1.167-1.16V84.05c0-5.905-1.334-11.64-3.79-16.305z" opacity=".2"/><path fill="#FFF" d="M352.7 67.74h-10.634c-2.457 4.664-3.79 10.4-3.79 16.303v19.61c0 .645.522 1.168 1.167 1.168h15.882c.644 0 1.167-.52 1.167-1.16V84.05c0-5.905-1.334-11.64-3.79-16.305z"/><path fill="#5E5271" d="M355.324 105.812h-15.88c-1.19 0-2.16-.97-2.16-2.16v-19.61c0-6.03 1.387-11.985 3.905-16.765.17-.326.5-.53.87-.53h10.64c.37 0 .7.205.87.53 2.51 4.78 3.9 10.735 3.9 16.766v19.61c0 1.19-.97 2.16-2.16 2.16zM342.67 68.73c-2.198 4.408-3.405 9.82-3.405 15.313v19.61c0 .098.08.178.177.178h15.88c.1 0 .178-.08.178-.17V84.05c0-5.495-1.207-10.906-3.406-15.315h-9.423z"/><path fill="#FBB563" d="M340.277 59.036l-.55 6.594a1.95 1.95 0 0 0 1.942 2.11h11.43c1.13 0 2.03-.975 1.94-2.11l-.55-6.594a5.824 5.824 0 0 0-5.8-5.337h-2.61c-3.03 0-5.56 2.32-5.81 5.33zm7.103 4.696a3.013 3.013 0 0 1 0-6.027 3.02 3.02 0 0 1 0 6.036z"/><path fill="#5E5271" d="M353.098 68.73h-11.43a2.94 2.94 0 0 1-2.928-3.182l.55-6.594c.29-3.502 3.273-6.246 6.79-6.246h2.61c3.516 0 6.498 2.744 6.788 6.246l.55 6.594a2.95 2.95 0 0 1-.766 2.234 2.956 2.956 0 0 1-2.164.947zm-7.02-14.04c-2.493 0-4.607 1.944-4.814 4.428l-.55 6.594a.95.95 0 0 0 .25.727c.184.19.434.3.705.3h11.42c.27 0 .52-.11.7-.31.18-.2.27-.46.25-.73l-.55-6.6a4.857 4.857 0 0 0-4.82-4.43h-2.61zm1.302 10.033a4.007 4.007 0 0 1-4.003-4.002c0-2.21 1.795-4 4.003-4 2.21 0 4.008 1.8 4.008 4.01s-1.797 4.01-4.008 4.01zm0-6.027a2.022 2.022 0 1 0 2.026 2.026 2.027 2.027 0 0 0-2.026-2.026zm.003 30.854c-1.803 0-3.27-1.467-3.27-3.27s1.467-3.27 3.27-3.27 3.27 1.467 3.27 3.27-1.467 3.27-3.27 3.27zm0-5.548c-1.257 0-2.28 1.022-2.28 2.28a2.28 2.28 0 0 0 4.56-.002 2.28 2.28 0 0 0-2.28-2.278z"/><path fill="#B9BAD5" d="M350.75 82.914l-6.734 6.732"/><path fill="#5E5271" d="M344.016 90.142a.494.494 0 0 1-.35-.845l6.734-6.734a.494.494 0 0 1 .7 0 .492.492 0 0 1 0 .7l-6.733 6.734a.494.494 0 0 1-.35.145z"/><path fill="#B9BAD5" d="M344.016 82.914l6.734 6.732"/><path fill="#5E5271" d="M350.75 90.142a.49.49 0 0 1-.35-.145l-6.734-6.733c-.194-.194-.194-.507 0-.7s.507-.195.7 0l6.735 6.732c.2.194.2.507 0 .7a.473.473 0 0 1-.35.146z"/><path fill="#E6E7F1" d="M353.898 101.033a.495.495 0 0 1-.495-.495V84.043c0-4.383-.954-8.73-2.758-12.574a.494.494 0 0 1 .237-.66c.25-.12.543-.01.66.23 1.866 3.97 2.852 8.46 2.852 12.99v16.49c0 .27-.222.49-.496.49zm-13.025 0a.495.495 0 0 1-.495-.495V84.043c0-4.53.986-9.022 2.852-12.994.116-.25.41-.36.66-.24.247.11.353.41.236.66-1.804 3.84-2.757 8.19-2.757 12.57v16.49c-.01.27-.23.49-.5.49z"/><path fill="#FFF" d="M377.67 67.74h-10.635c-2.457 4.664-3.79 10.4-3.79 16.303v19.61c0 .645.522 1.168 1.167 1.168h15.882c.644 0 1.167-.52 1.167-1.16V84.05c0-5.905-1.33-11.64-3.79-16.305z" opacity=".2"/><path fill="#FFF" d="M377.67 67.74h-10.635c-2.457 4.664-3.79 10.4-3.79 16.303v19.61c0 .645.522 1.168 1.167 1.168h15.882c.644 0 1.167-.52 1.167-1.16V84.05c0-5.905-1.33-11.64-3.79-16.305z"/><path fill="#5E5271" d="M380.293 105.812h-15.88c-1.19 0-2.16-.97-2.16-2.16v-19.61c0-6.03 1.388-11.985 3.906-16.765.17-.326.5-.53.87-.53h10.63c.37 0 .7.205.87.53 2.52 4.78 3.9 10.735 3.9 16.767v19.61c0 1.19-.97 2.158-2.16 2.158zM367.64 68.73c-2.198 4.408-3.405 9.82-3.405 15.313v19.61c0 .098.08.178.177.178h15.88c.098 0 .178-.08.178-.17V84.05c0-5.495-1.207-10.907-3.407-15.315h-9.422z"/><path fill="#FBB563" d="M365.246 59.036l-.55 6.594a1.95 1.95 0 0 0 1.942 2.11h11.43c1.14 0 2.035-.975 1.94-2.11l-.548-6.594a5.82 5.82 0 0 0-5.8-5.337h-2.612a5.82 5.82 0 0 0-5.802 5.33zm7.104 4.696a3.013 3.013 0 0 1 0-6.027 3.02 3.02 0 0 1 0 6.036z"/><path fill="#5E5271" d="M378.068 68.73h-11.43a2.94 2.94 0 0 1-2.928-3.183l.55-6.594c.29-3.502 3.273-6.246 6.788-6.246h2.61c3.515 0 6.498 2.744 6.79 6.246l.548 6.594c.07.816-.21 1.63-.766 2.233a2.946 2.946 0 0 1-2.162.95zm-11.835-9.612l-.55 6.594a.96.96 0 0 0 .25.727c.184.19.434.3.705.3h11.43a.957.957 0 0 0 .954-1.04l-.55-6.6c-.207-2.49-2.322-4.43-4.814-4.43h-2.61c-2.492 0-4.607 1.94-4.815 4.43zm6.117 5.605a4.007 4.007 0 0 1-4.003-4.002c0-2.21 1.795-4 4.003-4 2.21 0 4.008 1.8 4.008 4.01s-1.798 4.01-4.008 4.01zm0-6.027a2.022 2.022 0 1 0 2.026 2.026c0-1.118-.91-2.026-2.026-2.026zm.003 30.854c-1.803 0-3.27-1.467-3.27-3.27s1.467-3.27 3.27-3.27 3.27 1.467 3.27 3.27-1.467 3.27-3.27 3.27zm0-5.548c-1.257 0-2.28 1.022-2.28 2.28a2.28 2.28 0 0 0 4.56-.002 2.28 2.28 0 0 0-2.28-2.278z"/><path fill="#B9BAD5" d="M375.72 82.914l-6.734 6.732"/><path fill="#5E5271" d="M368.986 90.142a.494.494 0 0 1-.35-.845l6.734-6.734a.494.494 0 0 1 .7 0 .492.492 0 0 1 0 .7l-6.733 6.734a.494.494 0 0 1-.35.145z"/><path fill="#B9BAD5" d="M368.986 82.914l6.734 6.732"/><path fill="#5E5271" d="M375.72 90.142a.49.49 0 0 1-.35-.145l-6.734-6.733c-.194-.194-.194-.507 0-.7s.507-.195.7 0l6.735 6.732c.2.194.2.507 0 .7a.473.473 0 0 1-.35.146z"/><path fill="#E6E7F1" d="M378.867 101.033a.495.495 0 0 1-.495-.495V84.043c0-4.384-.953-8.732-2.757-12.574a.494.494 0 0 1 .237-.66c.25-.12.542-.01.66.23 1.865 3.97 2.85 8.46 2.85 12.99v16.49c0 .27-.22.49-.495.49zm-13.025 0a.495.495 0 0 1-.495-.495V84.043c0-4.527.986-9.02 2.853-12.994.116-.25.41-.36.66-.24.247.11.353.41.236.66-1.804 3.84-2.758 8.19-2.758 12.57v16.49c0 .27-.222.49-.496.49z"/></svg>